<?xml version="1.0" encoding="UTF-8" standalone="no"?>
<!-- Created with Inkscape (http://www.inkscape.org/) -->

<svg
   width="210mm"
   height="297mm"
   viewBox="0 0 210 297"
   version="1.1"
   id="svg1"
   inkscape:version="1.3.2 (1:1.3.2+202311252150+091e20ef0f)"
   sodipodi:docname="blow_down.svg"
   xmlns:inkscape="http://www.inkscape.org/namespaces/inkscape"
   xmlns:sodipodi="http://sodipodi.sourceforge.net/DTD/sodipodi-0.dtd"
   xmlns="http://www.w3.org/2000/svg"
   xmlns:svg="http://www.w3.org/2000/svg"
   xmlns:ns1="http://www.iki.fi/pav/software/textext/">
  <sodipodi:namedview
     id="namedview1"
     pagecolor="#ffffff"
     bordercolor="#666666"
     borderopacity="1.0"
     inkscape:showpageshadow="2"
     inkscape:pageopacity="0.0"
     inkscape:pagecheckerboard="0"
     inkscape:deskcolor="#d1d1d1"
     inkscape:document-units="mm"
     inkscape:zoom="0.56250914"
     inkscape:cx="132.44229"
     inkscape:cy="481.76995"
     inkscape:window-width="1920"
     inkscape:window-height="1016"
     inkscape:window-x="1920"
     inkscape:window-y="27"
     inkscape:window-maximized="1"
     inkscape:current-layer="g113" />
  <defs
     id="defs1">
    <linearGradient
       id="swatch108"
       inkscape:swatch="solid">
      <stop
         style="stop-color:#000000;stop-opacity:1;"
         offset="0"
         id="stop108" />
    </linearGradient>
    <inkscape:path-effect
       effect="spiro"
       id="path-effect5"
       is_visible="true"
       lpeversion="1" />
  </defs>
  <g
     inkscape:label="Layer 1"
     inkscape:groupmode="layer"
     id="layer1">
    <g
       id="g110"
       inkscape:label="neighborhood of gd"
       transform="matrix(3.4603277,0,0,3.4603277,-94.339884,-58.895593)">
      <path
         style="display:inline;fill:#cccccc;fill-opacity:1;stroke:#000000;stroke-width:0.171811;stroke-dasharray:0.687244, 0.687244;stroke-dashoffset:0;stroke-opacity:1"
         id="path8-3"
         sodipodi:type="arc"
         sodipodi:cx="72.716927"
         sodipodi:cy="40.617729"
         sodipodi:rx="11.208045"
         sodipodi:ry="11.811443"
         sodipodi:start="0"
         sodipodi:end="6.274476"
         sodipodi:open="true"
         sodipodi:arc-type="arc"
         d="M 83.924972,40.617729 A 11.208045,11.811443 0 0 1 72.74133,52.429145 11.208045,11.811443 0 0 1 61.508988,40.669164 11.208045,11.811443 0 0 1 72.643716,28.806538 11.208045,11.811443 0 0 1 83.924547,40.514861"
         transform="rotate(22.407689)"
         inkscape:label="path8-3" />
      <path
         style="fill:#ffffff;fill-opacity:1;stroke:#000000;stroke-width:0.165;stroke-dasharray:0.66, 0.66;stroke-dashoffset:0;stroke-opacity:1"
         id="path7-9"
         sodipodi:type="arc"
         sodipodi:cx="72.671173"
         sodipodi:cy="40.45311"
         sodipodi:rx="4.9179664"
         sodipodi:ry="5.8443103"
         sodipodi:start="0"
         sodipodi:end="6.274476"
         sodipodi:arc-type="arc"
         d="m 77.589139,40.45311 a 4.9179664,5.8443103 0 0 1 -4.907258,5.844296 4.9179664,5.8443103 0 0 1 -4.928628,-5.818846 4.9179664,5.8443103 0 0 1 4.885796,-5.869636 4.9179664,5.8443103 0 0 1 4.949904,5.793286"
         sodipodi:open="true"
         transform="rotate(22.407689)" />
    </g>
    <path
       style="fill:none;stroke:#000000;stroke-width:0.449655px;stroke-linecap:butt;stroke-linejoin:miter;stroke-opacity:1"
       d="M 38.569128,69.049369 C 39.429771,44.376987 42.731329,40.419856 54.62402,31.899345 81.697851,12.502361 141.08439,33.016716 139.30344,55.838899"
       id="path113"
       sodipodi:nodetypes="csc" />
    <g
       id="g113"
       style="fill:#abb8ed;fill-opacity:1"
       transform="matrix(0.49113359,0,0,0.49113359,52.489803,31.532557)">
      <path
         style="fill:#a3b6f5;fill-opacity:1;stroke:#000000;stroke-width:0.915544px;stroke-linecap:butt;stroke-linejoin:miter;stroke-opacity:1"
         d="M -28.283745,73.330598 C -23.423026,245.43316 188.51202,85.475778 177.43832,47.386403"
         id="path111"
         sodipodi:nodetypes="cc" />
      <path
         style="fill:#a3b6f5;fill-opacity:1;stroke:#000000;stroke-width:0.570954;stroke-linecap:butt;stroke-linejoin:miter;stroke-dasharray:2.28382, 2.28382;stroke-dashoffset:0;stroke-opacity:1"
         d="M -28.459773,77.175148 C -26.193646,42.523143 -2.1901306,30.727888 7.7430391,23.715295 18.399696,16.19198 67.037061,-13.095461 140.43122,18.881075 c 22.77101,9.920923 37.47833,30.2719 37.47833,30.2719"
         id="path112"
         sodipodi:nodetypes="cssc" />
      <g
         id="g114"
         style="fill:#ffffff;fill-opacity:1"
         transform="matrix(3.4603277,0,0,3.4603277,-428.73025,-170.74007)">
        <path
           style="fill:#ffffff;fill-opacity:1;stroke:#000000;stroke-width:0.109776px;stroke-linecap:butt;stroke-linejoin:miter;stroke-dasharray:0.439104, 0.439104;stroke-dashoffset:0;stroke-opacity:1"
           d="m 133.41126,70.801758 c 0.54939,21.890694 22.23782,0.710439 20.9862,-4.134364"
           id="path111-6"
           sodipodi:nodetypes="cc" />
        <path
           style="fill:#ffffff;fill-opacity:1;stroke:#000000;stroke-width:0.068;stroke-linecap:butt;stroke-linejoin:miter;stroke-dasharray:0.272, 0.272;stroke-dashoffset:0;stroke-opacity:1"
           d="m 133.39136,70.816548 c 0.25614,-4.407576 2.96916,-5.907887 4.09187,-6.799854 1.20448,-0.956941 6.70178,-4.682195 14.99724,-0.614898 2.57372,1.261905 1.598,4.060125 1.598,4.060125"
           id="path112-2"
           sodipodi:nodetypes="cssc" />
      </g>
    </g>
    <path
       style="fill:none;stroke:#000000;stroke-width:0.186562px;stroke-linecap:butt;stroke-linejoin:miter;stroke-dasharray:0.746251, 0.746251;stroke-dashoffset:0;stroke-opacity:1"
       d="m 68.644218,67.857746 c 0.33669,-10.859264 1.627877,-12.600959 6.279184,-16.351187 10.588783,-8.537408 29.787858,1.024167 29.091288,11.069106"
       id="path113-6"
       sodipodi:nodetypes="csc" />
    <g
       transform="matrix(1.2207275,0,0,1.2207275,100.19926,206.7002)"
       ns1:version="1.10.2"
       ns1:texconverter="pdflatex"
       ns1:pdfconverter="inkscape"
       ns1:text="$M \\times S^1 \\times [0, \\epsilon)$"
       ns1:preamble="/home/josua/.config/inkscape/extensions/textext/default_packages.tex"
       ns1:scale="1.0"
       ns1:alignment="middle center"
       ns1:stroke-to-path="0"
       ns1:inkscapeversion="1.3.2"
       id="g8894"
       ns1:jacobian_sqrt="0.352778"
       style="fill:#868686;fill-opacity:1;stroke:#cccccc;stroke-opacity:1">
      <defs
         id="id-1f960a75-1f8b-46e4-bd3d-601d36e5448f">
        <g
           id="id-33029a55-c3bc-4228-a612-7cb84cc0a7ac">
          <symbol
             overflow="visible"
             id="id-9c57559b-4010-4414-91e4-dfb8eed343aa">
            <path
               style="stroke:none;stroke-width:0"
               d=""
               id="id-5ca7223f-cba1-43bd-80db-393f36926a8b" />
          </symbol>
          <symbol
             overflow="visible"
             id="id-8b495931-afde-417c-9c3c-206247205b46">
            <path
               style="stroke:none;stroke-width:0"
               d="M 9.234375,-6.046875 C 9.328125,-6.40625 9.34375,-6.5 10.09375,-6.5 c 0.21875,0 0.3125,0 0.3125,-0.203125 0,-0.109375 -0.09375,-0.109375 -0.265625,-0.109375 h -1.3125 c -0.265625,0 -0.28125,0 -0.390625,0.1875 L 4.796875,-0.9375 4.015625,-6.578125 C 3.984375,-6.8125 3.96875,-6.8125 3.703125,-6.8125 H 2.34375 c -0.1875,0 -0.296875,0 -0.296875,0.1875 0,0.125 0.09375,0.125 0.28125,0.125 0.140625,0 0.3125,0.015625 0.4375,0.015625 0.15625,0.03125 0.21875,0.046875 0.21875,0.171875 0,0.03125 -0.015625,0.0625 -0.046875,0.1875 l -1.265625,5.0625 c -0.09375,0.40625 -0.265625,0.71875 -1.078125,0.75 -0.046875,0 -0.171875,0.015625 -0.171875,0.1875 0,0.09375 0.0625,0.125 0.140625,0.125 0.3125,0 0.65625,-0.03125 1,-0.03125 C 1.890625,-0.03125 2.25,0 2.578125,0 c 0.046875,0 0.1875,0 0.1875,-0.203125 0,-0.109375 -0.109375,-0.109375 -0.1875,-0.109375 -0.5625,0 -0.671875,-0.203125 -0.671875,-0.4375 0,-0.0625 0,-0.125 0.03125,-0.234375 L 3.296875,-6.40625 H 3.3125 l 0.859375,6.171875 C 4.1875,-0.109375 4.203125,0 4.3125,0 4.421875,0 4.484375,-0.109375 4.53125,-0.171875 l 4.03125,-6.3125 h 0.015625 l -1.4375,5.703125 c -0.09375,0.390625 -0.109375,0.46875 -0.90625,0.46875 -0.15625,0 -0.265625,0 -0.265625,0.1875 C 5.96875,0 6.078125,0 6.109375,0 6.390625,0 7.0625,-0.03125 7.34375,-0.03125 7.75,-0.03125 8.1875,0 8.59375,0 8.65625,0 8.78125,0 8.78125,-0.203125 8.78125,-0.3125 8.6875,-0.3125 8.5,-0.3125 c -0.359375,0 -0.640625,0 -0.640625,-0.171875 0,-0.046875 0,-0.0625 0.046875,-0.25 z m 0,0"
               id="id-641ef9ae-2deb-497e-aaec-56dac68ab6f1" />
          </symbol>
          <symbol
             overflow="visible"
             id="id-e3917b65-fbb0-477d-b560-98d1f9741f05">
            <path
               style="stroke:none;stroke-width:0"
               d="m 6.4375,-6.921875 c 0,-0.03125 -0.03125,-0.109375 -0.125,-0.109375 -0.046875,0 -0.046875,0.015625 -0.171875,0.15625 L 5.65625,-6.3125 c -0.25,-0.46875 -0.765625,-0.71875 -1.421875,-0.71875 -1.265625,0 -2.453125,1.15625 -2.453125,2.359375 0,0.796875 0.515625,1.265625 1.03125,1.40625 l 1.0625,0.28125 c 0.375,0.09375 0.921875,0.25 0.921875,1.0625 0,0.890625 -0.8125,1.828125 -1.796875,1.828125 -0.640625,0 -1.75,-0.21875 -1.75,-1.453125 0,-0.234375 0.0625,-0.484375 0.0625,-0.53125 0.015625,-0.046875 0.015625,-0.0625 0.015625,-0.078125 0,-0.09375 -0.0625,-0.109375 -0.109375,-0.109375 -0.046875,0 -0.078125,0.015625 -0.109375,0.046875 -0.03125,0.03125 -0.59375,2.3125 -0.59375,2.34375 0,0.046875 0.046875,0.09375 0.109375,0.09375 0.046875,0 0.0625,-0.015625 0.1875,-0.15625 L 1.296875,-0.5 c 0.421875,0.578125 1.109375,0.71875 1.6875,0.71875 1.359375,0 2.53125,-1.328125 2.53125,-2.5625 0,-0.6875 -0.34375,-1.03125 -0.484375,-1.171875 C 4.796875,-3.734375 4.640625,-3.78125 3.765625,-4 3.53125,-4.0625 3.1875,-4.171875 3.09375,-4.1875 2.828125,-4.28125 2.484375,-4.5625 2.484375,-5.09375 c 0,-0.8125 0.796875,-1.65625 1.75,-1.65625 0.8125,0 1.421875,0.4375 1.421875,1.546875 0,0.3125 -0.03125,0.5 -0.03125,0.5625 0,0 0,0.09375 0.109375,0.09375 0.109375,0 0.125,-0.03125 0.15625,-0.203125 z m 0,0"
               id="id-a390b4f1-72bc-4777-9e6f-3bc0c270c42a" />
          </symbol>
          <symbol
             overflow="visible"
             id="id-2f1f9d4d-bc80-4630-83c3-c15fe8106eed">
            <path
               style="stroke:none;stroke-width:0"
               d="m 2.03125,-0.015625 c 0,-0.65625 -0.25,-1.046875 -0.640625,-1.046875 -0.328125,0 -0.53125,0.25 -0.53125,0.53125 C 0.859375,-0.265625 1.0625,0 1.390625,0 1.5,0 1.640625,-0.046875 1.734375,-0.125 1.765625,-0.15625 1.78125,-0.15625 1.78125,-0.15625 c 0.015625,0 0.015625,0 0.015625,0.140625 0,0.75 -0.34375,1.34375 -0.671875,1.671875 -0.109375,0.109375 -0.109375,0.125 -0.109375,0.15625 0,0.078125 0.046875,0.109375 0.09375,0.109375 0.109375,0 0.921875,-0.765625 0.921875,-1.9375 z m 0,0"
               id="id-ebf012b7-f559-4ecb-bd9e-345810ce9b16" />
          </symbol>
          <symbol
             overflow="visible"
             id="id-d37b3d3b-8e00-46f3-8205-f904920f3d28">
            <path
               style="stroke:none;stroke-width:0"
               d="m 2.96875,-2.25 c 0.15625,0 0.34375,0 0.34375,-0.171875 C 3.3125,-2.5625 3.1875,-2.5625 3.015625,-2.5625 H 1.40625 c 0.234375,-0.84375 0.796875,-1.421875 1.703125,-1.421875 h 0.3125 c 0.171875,0 0.328125,0 0.328125,-0.171875 0,-0.140625 -0.125,-0.140625 -0.296875,-0.140625 H 3.09375 c -1.296875,0 -2.625,1 -2.625,2.515625 0,1.109375 0.75,1.890625 1.796875,1.890625 0.65625,0 1.296875,-0.40625 1.296875,-0.515625 0,-0.015625 0,-0.125 -0.09375,-0.125 -0.015625,0 -0.046875,0 -0.125,0.046875 -0.3125,0.203125 -0.6875,0.375 -1.046875,0.375 -0.578125,0 -1.078125,-0.421875 -1.078125,-1.296875 0,-0.34375 0.078125,-0.734375 0.109375,-0.84375 z m 0,0"
               id="id-5507ce3e-9f6b-40a7-90fc-528de7f8943a" />
          </symbol>
          <symbol
             overflow="visible"
             id="id-ff2aefea-cdf3-4d92-9527-54cb7d20c468">
            <path
               style="stroke:none;stroke-width:0"
               d=""
               id="id-c7c90ec2-411f-4c79-ac21-4ad4daab2698" />
          </symbol>
          <symbol
             overflow="visible"
             id="id-e581102f-59cd-4efc-9162-5405ae428f8f">
            <path
               style="stroke:none;stroke-width:0"
               d="M 3.875,-2.765625 1.890625,-4.75 C 1.765625,-4.875 1.75,-4.890625 1.671875,-4.890625 1.5625,-4.890625 1.46875,-4.8125 1.46875,-4.6875 c 0,0.0625 0.015625,0.078125 0.125,0.1875 l 2,2 -2,2.015625 c -0.109375,0.109375 -0.125,0.125 -0.125,0.1875 0,0.125 0.09375,0.203125 0.203125,0.203125 0.078125,0 0.09375,-0.015625 0.21875,-0.140625 L 3.875,-2.21875 l 2.0625,2.0625 c 0.015625,0.015625 0.078125,0.0625 0.140625,0.0625 0.125,0 0.203125,-0.078125 0.203125,-0.203125 0,-0.015625 0,-0.046875 -0.03125,-0.109375 C 6.234375,-0.421875 4.65625,-1.984375 4.15625,-2.5 l 1.828125,-1.8125 c 0.046875,-0.0625 0.203125,-0.1875 0.25,-0.25 0,-0.015625 0.046875,-0.0625 0.046875,-0.125 0,-0.125 -0.078125,-0.203125 -0.203125,-0.203125 C 6,-4.890625 5.96875,-4.859375 5.859375,-4.75 Z m 0,0"
               id="id-c918d65c-fb7a-4de7-b5d9-3f9d0b58b906" />
          </symbol>
          <symbol
             overflow="visible"
             id="id-3af1c48c-0f49-4cb5-91da-a2fca903dd89">
            <path
               style="stroke:none;stroke-width:0"
               d=""
               id="id-a2e27859-3cbf-4fba-87b4-3fdc13b52779" />
          </symbol>
          <symbol
             overflow="visible"
             id="id-11f31e0c-103d-4183-b5d5-24c5d0c9aa79">
            <path
               style="stroke:none;stroke-width:0"
               d="m 2.328125,-4.4375 c 0,-0.1875 0,-0.1875 -0.203125,-0.1875 -0.453125,0.4375 -1.078125,0.4375 -1.359375,0.4375 v 0.25 c 0.15625,0 0.625,0 1,-0.1875 v 3.546875 c 0,0.234375 0,0.328125 -0.6875,0.328125 H 0.8125 V 0 c 0.125,0 0.984375,-0.03125 1.234375,-0.03125 0.21875,0 1.09375,0.03125 1.25,0.03125 V -0.25 H 3.03125 c -0.703125,0 -0.703125,-0.09375 -0.703125,-0.328125 z m 0,0"
               id="id-625648d5-495c-4149-a223-b73a6b5530be" />
          </symbol>
          <symbol
             overflow="visible"
             id="id-a7492bd1-e186-4e6c-a28c-0a546edcfc68">
            <path
               style="stroke:none;stroke-width:0"
               d=""
               id="id-73e968c1-7cdd-4109-9d17-3af265070417" />
          </symbol>
          <symbol
             overflow="visible"
             id="id-f8c028b5-be55-4e18-9e1b-10d30e58c7b4">
            <path
               style="stroke:none;stroke-width:0"
               d="M 2.546875,2.5 V 2.09375 h -0.96875 v -9.171875 h 0.96875 v -0.40625 h -1.375 V 2.5 Z m 0,0"
               id="id-e4efc5c4-88c3-4458-bcdc-e6f77fb7bd72" />
          </symbol>
          <symbol
             overflow="visible"
             id="id-44464aab-c2d1-4dc8-a0e0-23cfe36c9819">
            <path
               style="stroke:none;stroke-width:0"
               d="m 4.578125,-3.1875 c 0,-0.796875 -0.046875,-1.59375 -0.390625,-2.328125 -0.453125,-0.96875 -1.28125,-1.125 -1.6875,-1.125 -0.609375,0 -1.328125,0.265625 -1.75,1.1875 -0.3125,0.6875 -0.359375,1.46875 -0.359375,2.265625 0,0.75 0.03125,1.640625 0.453125,2.40625 0.421875,0.796875 1.15625,1 1.640625,1 0.53125,0 1.296875,-0.203125 1.734375,-1.15625 0.3125,-0.6875 0.359375,-1.46875 0.359375,-2.25 z M 2.484375,0 C 2.09375,0 1.5,-0.25 1.328125,-1.203125 1.21875,-1.796875 1.21875,-2.71875 1.21875,-3.3125 c 0,-0.640625 0,-1.296875 0.078125,-1.828125 0.1875,-1.1875 0.9375,-1.28125 1.1875,-1.28125 0.328125,0 0.984375,0.1875 1.171875,1.171875 0.109375,0.5625 0.109375,1.3125 0.109375,1.9375 0,0.75 0,1.421875 -0.109375,2.0625 C 3.5,-0.296875 2.9375,0 2.484375,0 Z m 0,0"
               id="id-300811a6-27e0-4362-9e2a-6b04c00918d8" />
          </symbol>
          <symbol
             overflow="visible"
             id="id-81549106-a752-4aa8-909b-994a2a668e19">
            <path
               style="stroke:none;stroke-width:0"
               d="m 2.875,-2.5 c 0,-0.765625 -0.109375,-1.96875 -0.65625,-3.109375 -0.59375,-1.21875 -1.453125,-1.875 -1.546875,-1.875 -0.0625,0 -0.109375,0.046875 -0.109375,0.109375 0,0.03125 0,0.046875 0.1875,0.234375 0.984375,0.984375 1.546875,2.5625 1.546875,4.640625 0,1.71875 -0.359375,3.46875 -1.59375,4.71875 C 0.5625,2.34375 0.5625,2.359375 0.5625,2.390625 0.5625,2.453125 0.609375,2.5 0.671875,2.5 0.765625,2.5 1.671875,1.8125 2.25,0.546875 2.765625,-0.546875 2.875,-1.65625 2.875,-2.5 Z m 0,0"
               id="id-2219623b-2b87-40df-bd38-6a4230b06bf0" />
          </symbol>
        </g>
      </defs>
      <g
         id="id-825f7fab-66ad-441e-91a0-f8ba77ff042c"
         transform="translate(-149.134,-126.524)"
         style="fill:#868686;fill-opacity:1;stroke:#cccccc;stroke-opacity:1">
        <g
           style="fill:#868686;fill-opacity:1;stroke:#cccccc;stroke-opacity:1"
           id="id-dffc05ac-9f38-4932-8b52-b1f58c643caf">
          <g
             transform="translate(148.712,134.765)"
             id="g6313"
             style="fill:#868686;fill-opacity:1;stroke:#cccccc;stroke-opacity:1">
            <path
               style="fill:#868686;fill-opacity:1;stroke:#cccccc;stroke-width:0;stroke-opacity:1"
               d="M 9.234375,-6.046875 C 9.328125,-6.40625 9.34375,-6.5 10.09375,-6.5 c 0.21875,0 0.3125,0 0.3125,-0.203125 0,-0.109375 -0.09375,-0.109375 -0.265625,-0.109375 h -1.3125 c -0.265625,0 -0.28125,0 -0.390625,0.1875 L 4.796875,-0.9375 4.015625,-6.578125 C 3.984375,-6.8125 3.96875,-6.8125 3.703125,-6.8125 H 2.34375 c -0.1875,0 -0.296875,0 -0.296875,0.1875 0,0.125 0.09375,0.125 0.28125,0.125 0.140625,0 0.3125,0.015625 0.4375,0.015625 0.15625,0.03125 0.21875,0.046875 0.21875,0.171875 0,0.03125 -0.015625,0.0625 -0.046875,0.1875 l -1.265625,5.0625 c -0.09375,0.40625 -0.265625,0.71875 -1.078125,0.75 -0.046875,0 -0.171875,0.015625 -0.171875,0.1875 0,0.09375 0.0625,0.125 0.140625,0.125 0.3125,0 0.65625,-0.03125 1,-0.03125 C 1.890625,-0.03125 2.25,0 2.578125,0 c 0.046875,0 0.1875,0 0.1875,-0.203125 0,-0.109375 -0.109375,-0.109375 -0.1875,-0.109375 -0.5625,0 -0.671875,-0.203125 -0.671875,-0.4375 0,-0.0625 0,-0.125 0.03125,-0.234375 L 3.296875,-6.40625 H 3.3125 l 0.859375,6.171875 C 4.1875,-0.109375 4.203125,0 4.3125,0 4.421875,0 4.484375,-0.109375 4.53125,-0.171875 l 4.03125,-6.3125 h 0.015625 l -1.4375,5.703125 c -0.09375,0.390625 -0.109375,0.46875 -0.90625,0.46875 -0.15625,0 -0.265625,0 -0.265625,0.1875 C 5.96875,0 6.078125,0 6.109375,0 6.390625,0 7.0625,-0.03125 7.34375,-0.03125 7.75,-0.03125 8.1875,0 8.59375,0 8.65625,0 8.78125,0 8.78125,-0.203125 8.78125,-0.3125 8.6875,-0.3125 8.5,-0.3125 c -0.359375,0 -0.640625,0 -0.640625,-0.171875 0,-0.046875 0,-0.0625 0.046875,-0.25 z m 0,0"
               id="id-ef82d4b5-14b3-4116-b8bb-d2476f5e7b5f" />
          </g>
        </g>
        <g
           style="fill:#868686;fill-opacity:1;stroke:#cccccc;stroke-opacity:1"
           id="id-a4937f75-e398-47fa-9aac-7e5ef270f954">
          <g
             transform="translate(161.678,134.765)"
             id="g3991"
             style="fill:#868686;fill-opacity:1;stroke:#cccccc;stroke-opacity:1">
            <path
               style="fill:#868686;fill-opacity:1;stroke:#cccccc;stroke-width:0;stroke-opacity:1"
               d="M 3.875,-2.765625 1.890625,-4.75 C 1.765625,-4.875 1.75,-4.890625 1.671875,-4.890625 1.5625,-4.890625 1.46875,-4.8125 1.46875,-4.6875 c 0,0.0625 0.015625,0.078125 0.125,0.1875 l 2,2 -2,2.015625 c -0.109375,0.109375 -0.125,0.125 -0.125,0.1875 0,0.125 0.09375,0.203125 0.203125,0.203125 0.078125,0 0.09375,-0.015625 0.21875,-0.140625 L 3.875,-2.21875 l 2.0625,2.0625 c 0.015625,0.015625 0.078125,0.0625 0.140625,0.0625 0.125,0 0.203125,-0.078125 0.203125,-0.203125 0,-0.015625 0,-0.046875 -0.03125,-0.109375 C 6.234375,-0.421875 4.65625,-1.984375 4.15625,-2.5 l 1.828125,-1.8125 c 0.046875,-0.0625 0.203125,-0.1875 0.25,-0.25 0,-0.015625 0.046875,-0.0625 0.046875,-0.125 0,-0.125 -0.078125,-0.203125 -0.203125,-0.203125 C 6,-4.890625 5.96875,-4.859375 5.859375,-4.75 Z m 0,0"
               id="id-80faff1a-d9b7-46f2-ac0a-4d4063e98079" />
          </g>
        </g>
        <g
           style="fill:#868686;fill-opacity:1;stroke:#cccccc;stroke-opacity:1"
           id="id-e30acfe9-91be-4a6f-b9d6-184926999a4c">
          <g
             transform="translate(171.64,134.765)"
             id="g7099"
             style="fill:#868686;fill-opacity:1;stroke:#cccccc;stroke-opacity:1">
            <path
               style="fill:#868686;fill-opacity:1;stroke:#cccccc;stroke-width:0;stroke-opacity:1"
               d="m 6.4375,-6.921875 c 0,-0.03125 -0.03125,-0.109375 -0.125,-0.109375 -0.046875,0 -0.046875,0.015625 -0.171875,0.15625 L 5.65625,-6.3125 c -0.25,-0.46875 -0.765625,-0.71875 -1.421875,-0.71875 -1.265625,0 -2.453125,1.15625 -2.453125,2.359375 0,0.796875 0.515625,1.265625 1.03125,1.40625 l 1.0625,0.28125 c 0.375,0.09375 0.921875,0.25 0.921875,1.0625 0,0.890625 -0.8125,1.828125 -1.796875,1.828125 -0.640625,0 -1.75,-0.21875 -1.75,-1.453125 0,-0.234375 0.0625,-0.484375 0.0625,-0.53125 0.015625,-0.046875 0.015625,-0.0625 0.015625,-0.078125 0,-0.09375 -0.0625,-0.109375 -0.109375,-0.109375 -0.046875,0 -0.078125,0.015625 -0.109375,0.046875 -0.03125,0.03125 -0.59375,2.3125 -0.59375,2.34375 0,0.046875 0.046875,0.09375 0.109375,0.09375 0.046875,0 0.0625,-0.015625 0.1875,-0.15625 L 1.296875,-0.5 c 0.421875,0.578125 1.109375,0.71875 1.6875,0.71875 1.359375,0 2.53125,-1.328125 2.53125,-2.5625 0,-0.6875 -0.34375,-1.03125 -0.484375,-1.171875 C 4.796875,-3.734375 4.640625,-3.78125 3.765625,-4 3.53125,-4.0625 3.1875,-4.171875 3.09375,-4.1875 2.828125,-4.28125 2.484375,-4.5625 2.484375,-5.09375 c 0,-0.8125 0.796875,-1.65625 1.75,-1.65625 0.8125,0 1.421875,0.4375 1.421875,1.546875 0,0.3125 -0.03125,0.5 -0.03125,0.5625 0,0 0,0.09375 0.109375,0.09375 0.109375,0 0.125,-0.03125 0.15625,-0.203125 z m 0,0"
               id="id-6a87762c-fb75-4ac8-89bd-d66021b8fd02" />
          </g>
        </g>
        <g
           style="fill:#868686;fill-opacity:1;stroke:#cccccc;stroke-opacity:1"
           id="id-2f7dc94c-dfaf-4fbd-b403-c7a18887a1c7">
          <g
             transform="translate(178.323,131.149)"
             id="g7728"
             style="fill:#868686;fill-opacity:1;stroke:#cccccc;stroke-opacity:1">
            <path
               style="fill:#868686;fill-opacity:1;stroke:#cccccc;stroke-width:0;stroke-opacity:1"
               d="m 2.328125,-4.4375 c 0,-0.1875 0,-0.1875 -0.203125,-0.1875 -0.453125,0.4375 -1.078125,0.4375 -1.359375,0.4375 v 0.25 c 0.15625,0 0.625,0 1,-0.1875 v 3.546875 c 0,0.234375 0,0.328125 -0.6875,0.328125 H 0.8125 V 0 c 0.125,0 0.984375,-0.03125 1.234375,-0.03125 0.21875,0 1.09375,0.03125 1.25,0.03125 V -0.25 H 3.03125 c -0.703125,0 -0.703125,-0.09375 -0.703125,-0.328125 z m 0,0"
               id="id-28b57214-a89f-4b62-99dc-f74d6cdae88d" />
          </g>
        </g>
        <g
           style="fill:#868686;fill-opacity:1;stroke:#cccccc;stroke-opacity:1"
           id="id-1ae6d5dc-9aea-4142-9bcd-6683136b7dee">
          <g
             transform="translate(185.007,134.765)"
             id="g5542"
             style="fill:#868686;fill-opacity:1;stroke:#cccccc;stroke-opacity:1">
            <path
               style="fill:#868686;fill-opacity:1;stroke:#cccccc;stroke-width:0;stroke-opacity:1"
               d="M 3.875,-2.765625 1.890625,-4.75 C 1.765625,-4.875 1.75,-4.890625 1.671875,-4.890625 1.5625,-4.890625 1.46875,-4.8125 1.46875,-4.6875 c 0,0.0625 0.015625,0.078125 0.125,0.1875 l 2,2 -2,2.015625 c -0.109375,0.109375 -0.125,0.125 -0.125,0.1875 0,0.125 0.09375,0.203125 0.203125,0.203125 0.078125,0 0.09375,-0.015625 0.21875,-0.140625 L 3.875,-2.21875 l 2.0625,2.0625 c 0.015625,0.015625 0.078125,0.0625 0.140625,0.0625 0.125,0 0.203125,-0.078125 0.203125,-0.203125 0,-0.015625 0,-0.046875 -0.03125,-0.109375 C 6.234375,-0.421875 4.65625,-1.984375 4.15625,-2.5 l 1.828125,-1.8125 c 0.046875,-0.0625 0.203125,-0.1875 0.25,-0.25 0,-0.015625 0.046875,-0.0625 0.046875,-0.125 0,-0.125 -0.078125,-0.203125 -0.203125,-0.203125 C 6,-4.890625 5.96875,-4.859375 5.859375,-4.75 Z m 0,0"
               id="id-6aab23a6-23f6-4b65-b8b9-4d678adedcbc" />
          </g>
        </g>
        <g
           style="fill:#868686;fill-opacity:1;stroke:#cccccc;stroke-opacity:1"
           id="id-73abc747-4995-4e5d-b4bf-9f11c775a10e">
          <g
             transform="translate(194.969,134.765)"
             id="g6043"
             style="fill:#868686;fill-opacity:1;stroke:#cccccc;stroke-opacity:1">
            <path
               style="fill:#868686;fill-opacity:1;stroke:#cccccc;stroke-width:0;stroke-opacity:1"
               d="M 2.546875,2.5 V 2.09375 h -0.96875 v -9.171875 h 0.96875 v -0.40625 h -1.375 V 2.5 Z m 0,0"
               id="id-92b11925-b33a-4823-a0a3-f6ff9426541e" />
          </g>
          <g
             transform="translate(197.737,134.765)"
             id="g9327"
             style="fill:#868686;fill-opacity:1;stroke:#cccccc;stroke-opacity:1">
            <path
               style="fill:#868686;fill-opacity:1;stroke:#cccccc;stroke-width:0;stroke-opacity:1"
               d="m 4.578125,-3.1875 c 0,-0.796875 -0.046875,-1.59375 -0.390625,-2.328125 -0.453125,-0.96875 -1.28125,-1.125 -1.6875,-1.125 -0.609375,0 -1.328125,0.265625 -1.75,1.1875 -0.3125,0.6875 -0.359375,1.46875 -0.359375,2.265625 0,0.75 0.03125,1.640625 0.453125,2.40625 0.421875,0.796875 1.15625,1 1.640625,1 0.53125,0 1.296875,-0.203125 1.734375,-1.15625 0.3125,-0.6875 0.359375,-1.46875 0.359375,-2.25 z M 2.484375,0 C 2.09375,0 1.5,-0.25 1.328125,-1.203125 1.21875,-1.796875 1.21875,-2.71875 1.21875,-3.3125 c 0,-0.640625 0,-1.296875 0.078125,-1.828125 0.1875,-1.1875 0.9375,-1.28125 1.1875,-1.28125 0.328125,0 0.984375,0.1875 1.171875,1.171875 0.109375,0.5625 0.109375,1.3125 0.109375,1.9375 0,0.75 0,1.421875 -0.109375,2.0625 C 3.5,-0.296875 2.9375,0 2.484375,0 Z m 0,0"
               id="id-aa6c92be-f076-4473-a29b-acc3d1a5e184" />
          </g>
        </g>
        <g
           style="fill:#868686;fill-opacity:1;stroke:#cccccc;stroke-opacity:1"
           id="id-6456addd-043b-4f16-b12b-fd72c406ad43">
          <g
             transform="translate(202.718,134.765)"
             id="g2847"
             style="fill:#868686;fill-opacity:1;stroke:#cccccc;stroke-opacity:1">
            <path
               style="fill:#868686;fill-opacity:1;stroke:#cccccc;stroke-width:0;stroke-opacity:1"
               d="m 2.03125,-0.015625 c 0,-0.65625 -0.25,-1.046875 -0.640625,-1.046875 -0.328125,0 -0.53125,0.25 -0.53125,0.53125 C 0.859375,-0.265625 1.0625,0 1.390625,0 1.5,0 1.640625,-0.046875 1.734375,-0.125 1.765625,-0.15625 1.78125,-0.15625 1.78125,-0.15625 c 0.015625,0 0.015625,0 0.015625,0.140625 0,0.75 -0.34375,1.34375 -0.671875,1.671875 -0.109375,0.109375 -0.109375,0.125 -0.109375,0.15625 0,0.078125 0.046875,0.109375 0.09375,0.109375 0.109375,0 0.921875,-0.765625 0.921875,-1.9375 z m 0,0"
               id="id-da50d559-6966-40f2-9b8c-6f174a2b46a5" />
          </g>
        </g>
        <g
           style="fill:#868686;fill-opacity:1;stroke:#cccccc;stroke-opacity:1"
           id="id-3d274c52-3de7-4ba4-918d-b38cc5343eee">
          <g
             transform="translate(207.149,134.765)"
             id="g547"
             style="fill:#868686;fill-opacity:1;stroke:#cccccc;stroke-opacity:1">
            <path
               style="fill:#868686;fill-opacity:1;stroke:#cccccc;stroke-width:0;stroke-opacity:1"
               d="m 2.96875,-2.25 c 0.15625,0 0.34375,0 0.34375,-0.171875 C 3.3125,-2.5625 3.1875,-2.5625 3.015625,-2.5625 H 1.40625 c 0.234375,-0.84375 0.796875,-1.421875 1.703125,-1.421875 h 0.3125 c 0.171875,0 0.328125,0 0.328125,-0.171875 0,-0.140625 -0.125,-0.140625 -0.296875,-0.140625 H 3.09375 c -1.296875,0 -2.625,1 -2.625,2.515625 0,1.109375 0.75,1.890625 1.796875,1.890625 0.65625,0 1.296875,-0.40625 1.296875,-0.515625 0,-0.015625 0,-0.125 -0.09375,-0.125 -0.015625,0 -0.046875,0 -0.125,0.046875 -0.3125,0.203125 -0.6875,0.375 -1.046875,0.375 -0.578125,0 -1.078125,-0.421875 -1.078125,-1.296875 0,-0.34375 0.078125,-0.734375 0.109375,-0.84375 z m 0,0"
               id="id-2fe00f89-44ab-4732-9de1-8d5ed8f12bf8" />
          </g>
        </g>
        <g
           style="fill:#868686;fill-opacity:1;stroke:#cccccc;stroke-opacity:1"
           id="id-aca1bcb5-4b06-406f-b363-6e1ac50a6531">
          <g
             transform="translate(211.19,134.765)"
             id="g606"
             style="fill:#868686;fill-opacity:1;stroke:#cccccc;stroke-opacity:1">
            <path
               style="fill:#868686;fill-opacity:1;stroke:#cccccc;stroke-width:0;stroke-opacity:1"
               d="m 2.875,-2.5 c 0,-0.765625 -0.109375,-1.96875 -0.65625,-3.109375 -0.59375,-1.21875 -1.453125,-1.875 -1.546875,-1.875 -0.0625,0 -0.109375,0.046875 -0.109375,0.109375 0,0.03125 0,0.046875 0.1875,0.234375 0.984375,0.984375 1.546875,2.5625 1.546875,4.640625 0,1.71875 -0.359375,3.46875 -1.59375,4.71875 C 0.5625,2.34375 0.5625,2.359375 0.5625,2.390625 0.5625,2.453125 0.609375,2.5 0.671875,2.5 0.765625,2.5 1.671875,1.8125 2.25,0.546875 2.765625,-0.546875 2.875,-1.65625 2.875,-2.5 Z m 0,0"
               id="id-625327d0-bc08-4a0b-a23f-5a4ebe95101e" />
          </g>
        </g>
      </g>
    </g>
    <g
       transform="matrix(1.2207275,0,0,1.2207275,126.24178,82.536398)"
       ns1:version="1.10.2"
       ns1:texconverter="pdflatex"
       ns1:pdfconverter="inkscape"
       ns1:text="$M \\times D^2$"
       ns1:preamble="/home/josua/.config/inkscape/extensions/textext/default_packages.tex"
       ns1:scale="1.0"
       ns1:alignment="middle center"
       ns1:stroke-to-path="0"
       ns1:inkscapeversion="1.3.2"
       id="g4581"
       ns1:jacobian_sqrt="0.352778"
       style="fill:#868686;fill-opacity:1">
      <defs
         id="id-f94f2f70-fcdb-4e9c-a7fc-cd54053cad15">
        <g
           id="id-bedb9267-c52d-470a-b966-9d74aabc8b1b">
          <symbol
             overflow="visible"
             id="id-d464c91e-6562-4886-bc11-688e3e1752d5">
            <path
               style="stroke:none;stroke-width:0"
               d=""
               id="id-08d32b04-b344-4cb5-88e5-9d78df4282f9" />
          </symbol>
          <symbol
             overflow="visible"
             id="id-53f83131-14b8-410c-a62d-bd5f14ac18bb">
            <path
               style="stroke:none;stroke-width:0"
               d="M 9.234375,-6.046875 C 9.328125,-6.40625 9.34375,-6.5 10.09375,-6.5 c 0.21875,0 0.3125,0 0.3125,-0.203125 0,-0.109375 -0.09375,-0.109375 -0.265625,-0.109375 h -1.3125 c -0.265625,0 -0.28125,0 -0.390625,0.1875 L 4.796875,-0.9375 4.015625,-6.578125 C 3.984375,-6.8125 3.96875,-6.8125 3.703125,-6.8125 H 2.34375 c -0.1875,0 -0.296875,0 -0.296875,0.1875 0,0.125 0.09375,0.125 0.28125,0.125 0.140625,0 0.3125,0.015625 0.4375,0.015625 0.15625,0.03125 0.21875,0.046875 0.21875,0.171875 0,0.03125 -0.015625,0.0625 -0.046875,0.1875 l -1.265625,5.0625 c -0.09375,0.40625 -0.265625,0.71875 -1.078125,0.75 -0.046875,0 -0.171875,0.015625 -0.171875,0.1875 0,0.09375 0.0625,0.125 0.140625,0.125 0.3125,0 0.65625,-0.03125 1,-0.03125 C 1.890625,-0.03125 2.25,0 2.578125,0 c 0.046875,0 0.1875,0 0.1875,-0.203125 0,-0.109375 -0.109375,-0.109375 -0.1875,-0.109375 -0.5625,0 -0.671875,-0.203125 -0.671875,-0.4375 0,-0.0625 0,-0.125 0.03125,-0.234375 L 3.296875,-6.40625 H 3.3125 l 0.859375,6.171875 C 4.1875,-0.109375 4.203125,0 4.3125,0 4.421875,0 4.484375,-0.109375 4.53125,-0.171875 l 4.03125,-6.3125 h 0.015625 l -1.4375,5.703125 c -0.09375,0.390625 -0.109375,0.46875 -0.90625,0.46875 -0.15625,0 -0.265625,0 -0.265625,0.1875 C 5.96875,0 6.078125,0 6.109375,0 6.390625,0 7.0625,-0.03125 7.34375,-0.03125 7.75,-0.03125 8.1875,0 8.59375,0 8.65625,0 8.78125,0 8.78125,-0.203125 8.78125,-0.3125 8.6875,-0.3125 8.5,-0.3125 c -0.359375,0 -0.640625,0 -0.640625,-0.171875 0,-0.046875 0,-0.0625 0.046875,-0.25 z m 0,0"
               id="id-e2360e1d-43f8-4f7a-8c7f-e1ee7665981a" />
          </symbol>
          <symbol
             overflow="visible"
             id="id-148ca54b-174a-41c6-a42d-81614ff7196b">
            <path
               style="stroke:none;stroke-width:0"
               d="m 1.578125,-0.78125 c -0.09375,0.390625 -0.109375,0.46875 -0.90625,0.46875 -0.15625,0 -0.265625,0 -0.265625,0.1875 C 0.40625,0 0.484375,0 0.671875,0 h 3.3125 c 2.0625,0 4.03125,-2.109375 4.03125,-4.28125 0,-1.40625 -0.84375,-2.53125 -2.34375,-2.53125 h -3.34375 c -0.1875,0 -0.296875,0 -0.296875,0.1875 0,0.125 0.078125,0.125 0.28125,0.125 0.125,0 0.3125,0.015625 0.421875,0.015625 0.171875,0.03125 0.21875,0.046875 0.21875,0.171875 0,0.03125 0,0.0625 -0.03125,0.1875 z M 3.734375,-6.125 C 3.828125,-6.46875 3.84375,-6.5 4.28125,-6.5 h 1.0625 c 0.96875,0 1.796875,0.53125 1.796875,1.84375 0,0.484375 -0.1875,2.125 -1.046875,3.21875 -0.28125,0.375 -1.0625,1.125 -2.296875,1.125 h -1.125 c -0.140625,0 -0.15625,0 -0.21875,0 -0.09375,-0.015625 -0.125,-0.03125 -0.125,-0.109375 0,-0.03125 0,-0.046875 0.046875,-0.21875 z m 0,0"
               id="id-586374ae-d162-475e-ba61-42e0820bf87e" />
          </symbol>
          <symbol
             overflow="visible"
             id="id-2aac0b0f-09f7-453d-b06b-2431f76d2392">
            <path
               style="stroke:none;stroke-width:0"
               d=""
               id="id-7ac8d80e-72f8-48a6-9a9d-1c460d5fb076" />
          </symbol>
          <symbol
             overflow="visible"
             id="id-3b09d344-195d-4ed5-a1fc-3e3b140dcc40">
            <path
               style="stroke:none;stroke-width:0"
               d="M 3.875,-2.765625 1.890625,-4.75 C 1.765625,-4.875 1.75,-4.890625 1.671875,-4.890625 1.5625,-4.890625 1.46875,-4.8125 1.46875,-4.6875 c 0,0.0625 0.015625,0.078125 0.125,0.1875 l 2,2 -2,2.015625 c -0.109375,0.109375 -0.125,0.125 -0.125,0.1875 0,0.125 0.09375,0.203125 0.203125,0.203125 0.078125,0 0.09375,-0.015625 0.21875,-0.140625 L 3.875,-2.21875 l 2.0625,2.0625 c 0.015625,0.015625 0.078125,0.0625 0.140625,0.0625 0.125,0 0.203125,-0.078125 0.203125,-0.203125 0,-0.015625 0,-0.046875 -0.03125,-0.109375 C 6.234375,-0.421875 4.65625,-1.984375 4.15625,-2.5 l 1.828125,-1.8125 c 0.046875,-0.0625 0.203125,-0.1875 0.25,-0.25 0,-0.015625 0.046875,-0.0625 0.046875,-0.125 0,-0.125 -0.078125,-0.203125 -0.203125,-0.203125 C 6,-4.890625 5.96875,-4.859375 5.859375,-4.75 Z m 0,0"
               id="id-537d44e9-5633-4908-bb67-4d2d1b70b4a4" />
          </symbol>
          <symbol
             overflow="visible"
             id="id-244a214d-9553-436b-b72d-8dab5eb24309">
            <path
               style="stroke:none;stroke-width:0"
               d=""
               id="id-0b27b299-e53e-4de1-bd9d-48ac814eabcf" />
          </symbol>
          <symbol
             overflow="visible"
             id="id-79e54698-aead-4ddb-aedb-ee2a111e1d5a">
            <path
               style="stroke:none;stroke-width:0"
               d="M 3.515625,-1.265625 H 3.28125 c -0.015625,0.15625 -0.09375,0.5625 -0.1875,0.625 C 3.046875,-0.59375 2.515625,-0.59375 2.40625,-0.59375 H 1.125 c 0.734375,-0.640625 0.984375,-0.84375 1.390625,-1.171875 0.515625,-0.40625 1,-0.84375 1,-1.5 0,-0.84375 -0.734375,-1.359375 -1.625,-1.359375 -0.859375,0 -1.453125,0.609375 -1.453125,1.25 0,0.34375 0.296875,0.390625 0.375,0.390625 0.15625,0 0.359375,-0.125 0.359375,-0.375 0,-0.125 -0.046875,-0.375 -0.40625,-0.375 C 0.984375,-4.21875 1.453125,-4.375 1.78125,-4.375 c 0.703125,0 1.0625,0.546875 1.0625,1.109375 0,0.609375 -0.4375,1.078125 -0.65625,1.328125 L 0.515625,-0.265625 C 0.4375,-0.203125 0.4375,-0.1875 0.4375,0 h 2.875 z m 0,0"
               id="id-91466149-4567-4ee8-87a0-b08c776a54d7" />
          </symbol>
        </g>
      </defs>
      <g
         id="id-bcd23b60-5f82-4700-b7b3-f8da30e70692"
         transform="translate(-149.134,-126.524)"
         style="fill:#868686;fill-opacity:1">
        <g
           style="fill:#868686;fill-opacity:1"
           id="id-0ca55f11-7f2c-4cab-b9e1-635e177dfda5">
          <g
             transform="translate(148.712,134.765)"
             id="g464"
             style="fill:#868686;fill-opacity:1">
            <path
               style="fill:#868686;fill-opacity:1;stroke:none;stroke-width:0"
               d="M 9.234375,-6.046875 C 9.328125,-6.40625 9.34375,-6.5 10.09375,-6.5 c 0.21875,0 0.3125,0 0.3125,-0.203125 0,-0.109375 -0.09375,-0.109375 -0.265625,-0.109375 h -1.3125 c -0.265625,0 -0.28125,0 -0.390625,0.1875 L 4.796875,-0.9375 4.015625,-6.578125 C 3.984375,-6.8125 3.96875,-6.8125 3.703125,-6.8125 H 2.34375 c -0.1875,0 -0.296875,0 -0.296875,0.1875 0,0.125 0.09375,0.125 0.28125,0.125 0.140625,0 0.3125,0.015625 0.4375,0.015625 0.15625,0.03125 0.21875,0.046875 0.21875,0.171875 0,0.03125 -0.015625,0.0625 -0.046875,0.1875 l -1.265625,5.0625 c -0.09375,0.40625 -0.265625,0.71875 -1.078125,0.75 -0.046875,0 -0.171875,0.015625 -0.171875,0.1875 0,0.09375 0.0625,0.125 0.140625,0.125 0.3125,0 0.65625,-0.03125 1,-0.03125 C 1.890625,-0.03125 2.25,0 2.578125,0 c 0.046875,0 0.1875,0 0.1875,-0.203125 0,-0.109375 -0.109375,-0.109375 -0.1875,-0.109375 -0.5625,0 -0.671875,-0.203125 -0.671875,-0.4375 0,-0.0625 0,-0.125 0.03125,-0.234375 L 3.296875,-6.40625 H 3.3125 l 0.859375,6.171875 C 4.1875,-0.109375 4.203125,0 4.3125,0 4.421875,0 4.484375,-0.109375 4.53125,-0.171875 l 4.03125,-6.3125 h 0.015625 l -1.4375,5.703125 c -0.09375,0.390625 -0.109375,0.46875 -0.90625,0.46875 -0.15625,0 -0.265625,0 -0.265625,0.1875 C 5.96875,0 6.078125,0 6.109375,0 6.390625,0 7.0625,-0.03125 7.34375,-0.03125 7.75,-0.03125 8.1875,0 8.59375,0 8.65625,0 8.78125,0 8.78125,-0.203125 8.78125,-0.3125 8.6875,-0.3125 8.5,-0.3125 c -0.359375,0 -0.640625,0 -0.640625,-0.171875 0,-0.046875 0,-0.0625 0.046875,-0.25 z m 0,0"
               id="id-5686b037-34f8-43b2-860f-c93e6863a5ff" />
          </g>
        </g>
        <g
           style="fill:#868686;fill-opacity:1"
           id="id-ae0c8536-00c4-425b-891e-beb1fa04b8a1">
          <g
             transform="translate(161.678,134.765)"
             id="g78"
             style="fill:#868686;fill-opacity:1">
            <path
               style="fill:#868686;fill-opacity:1;stroke:none;stroke-width:0"
               d="M 3.875,-2.765625 1.890625,-4.75 C 1.765625,-4.875 1.75,-4.890625 1.671875,-4.890625 1.5625,-4.890625 1.46875,-4.8125 1.46875,-4.6875 c 0,0.0625 0.015625,0.078125 0.125,0.1875 l 2,2 -2,2.015625 c -0.109375,0.109375 -0.125,0.125 -0.125,0.1875 0,0.125 0.09375,0.203125 0.203125,0.203125 0.078125,0 0.09375,-0.015625 0.21875,-0.140625 L 3.875,-2.21875 l 2.0625,2.0625 c 0.015625,0.015625 0.078125,0.0625 0.140625,0.0625 0.125,0 0.203125,-0.078125 0.203125,-0.203125 0,-0.015625 0,-0.046875 -0.03125,-0.109375 C 6.234375,-0.421875 4.65625,-1.984375 4.15625,-2.5 l 1.828125,-1.8125 c 0.046875,-0.0625 0.203125,-0.1875 0.25,-0.25 0,-0.015625 0.046875,-0.0625 0.046875,-0.125 0,-0.125 -0.078125,-0.203125 -0.203125,-0.203125 C 6,-4.890625 5.96875,-4.859375 5.859375,-4.75 Z m 0,0"
               id="id-8a89f29a-4302-4704-bdd5-27758daecb5b" />
          </g>
        </g>
        <g
           style="fill:#868686;fill-opacity:1"
           id="id-e67e6d80-d7f2-4faf-a650-0514cb6900fe">
          <g
             transform="translate(171.64,134.765)"
             id="g7431"
             style="fill:#868686;fill-opacity:1">
            <path
               style="fill:#868686;fill-opacity:1;stroke:none;stroke-width:0"
               d="m 1.578125,-0.78125 c -0.09375,0.390625 -0.109375,0.46875 -0.90625,0.46875 -0.15625,0 -0.265625,0 -0.265625,0.1875 C 0.40625,0 0.484375,0 0.671875,0 h 3.3125 c 2.0625,0 4.03125,-2.109375 4.03125,-4.28125 0,-1.40625 -0.84375,-2.53125 -2.34375,-2.53125 h -3.34375 c -0.1875,0 -0.296875,0 -0.296875,0.1875 0,0.125 0.078125,0.125 0.28125,0.125 0.125,0 0.3125,0.015625 0.421875,0.015625 0.171875,0.03125 0.21875,0.046875 0.21875,0.171875 0,0.03125 0,0.0625 -0.03125,0.1875 z M 3.734375,-6.125 C 3.828125,-6.46875 3.84375,-6.5 4.28125,-6.5 h 1.0625 c 0.96875,0 1.796875,0.53125 1.796875,1.84375 0,0.484375 -0.1875,2.125 -1.046875,3.21875 -0.28125,0.375 -1.0625,1.125 -2.296875,1.125 h -1.125 c -0.140625,0 -0.15625,0 -0.21875,0 -0.09375,-0.015625 -0.125,-0.03125 -0.125,-0.109375 0,-0.03125 0,-0.046875 0.046875,-0.21875 z m 0,0"
               id="id-38bfda4d-dffa-4a2d-81ac-a901f7ca60f6" />
          </g>
        </g>
        <g
           style="fill:#868686;fill-opacity:1"
           id="id-2631d4f6-86d3-469f-a3db-f47e9a8550aa">
          <g
             transform="translate(180.165,131.149)"
             id="g3902"
             style="fill:#868686;fill-opacity:1">
            <path
               style="fill:#868686;fill-opacity:1;stroke:none;stroke-width:0"
               d="M 3.515625,-1.265625 H 3.28125 c -0.015625,0.15625 -0.09375,0.5625 -0.1875,0.625 C 3.046875,-0.59375 2.515625,-0.59375 2.40625,-0.59375 H 1.125 c 0.734375,-0.640625 0.984375,-0.84375 1.390625,-1.171875 0.515625,-0.40625 1,-0.84375 1,-1.5 0,-0.84375 -0.734375,-1.359375 -1.625,-1.359375 -0.859375,0 -1.453125,0.609375 -1.453125,1.25 0,0.34375 0.296875,0.390625 0.375,0.390625 0.15625,0 0.359375,-0.125 0.359375,-0.375 0,-0.125 -0.046875,-0.375 -0.40625,-0.375 C 0.984375,-4.21875 1.453125,-4.375 1.78125,-4.375 c 0.703125,0 1.0625,0.546875 1.0625,1.109375 0,0.609375 -0.4375,1.078125 -0.65625,1.328125 L 0.515625,-0.265625 C 0.4375,-0.203125 0.4375,-0.1875 0.4375,0 h 2.875 z m 0,0"
               id="id-cdef9d98-34a2-4655-9f1b-d08c86041ff2" />
          </g>
        </g>
      </g>
    </g>
  </g>
  <g
     inkscape:groupmode="layer"
     id="layer2"
     inkscape:label="Layer 2">
    <g
       id="g109"
       transform="matrix(3.4603277,0,0,3.4603277,-96.556253,-57.653046)"
       inkscape:label="giroux domain">
      <path
         style="fill:none;stroke:#000000;stroke-width:0.165;stroke-dasharray:none;stroke-opacity:1"
         id="path7"
         sodipodi:type="arc"
         sodipodi:cx="71.181763"
         sodipodi:cy="40.031956"
         sodipodi:rx="4.9179664"
         sodipodi:ry="5.8443103"
         sodipodi:start="0"
         sodipodi:end="6.274476"
         sodipodi:arc-type="arc"
         d="m 76.099729,40.031956 a 4.9179664,5.8443103 0 0 1 -4.907258,5.844296 4.9179664,5.8443103 0 0 1 -4.928628,-5.818846 4.9179664,5.8443103 0 0 1 4.885796,-5.869636 4.9179664,5.8443103 0 0 1 4.949904,5.793286"
         sodipodi:open="true"
         transform="rotate(22.407689)" />
      <path
         style="fill:none;stroke:#000000;stroke-width:0.171811;stroke-dasharray:none;stroke-opacity:1"
         id="path8"
         sodipodi:type="arc"
         sodipodi:cx="71.256775"
         sodipodi:cy="39.948154"
         sodipodi:rx="11.208045"
         sodipodi:ry="11.811443"
         sodipodi:start="0"
         sodipodi:end="6.274476"
         sodipodi:open="true"
         sodipodi:arc-type="arc"
         d="M 82.46482,39.948154 A 11.208045,11.811443 0 0 1 71.281178,51.75957 11.208045,11.811443 0 0 1 60.048836,39.999589 11.208045,11.811443 0 0 1 71.183565,28.136963 11.208045,11.811443 0 0 1 82.464395,39.845286"
         transform="rotate(22.407689)" />
      <path
         style="fill:#a2b5f5;fill-opacity:1;stroke:#000000;stroke-width:0;stroke-dasharray:none;stroke-dashoffset:0;stroke-opacity:0.977481"
         d="m 185.55254,285.77571 c -6.19472,-0.76852 -13.14694,-3.34845 -18.07673,-6.70817 -12.4093,-8.45712 -19.68322,-24.55781 -17.92544,-39.67767 2.33691,-20.10145 16.69578,-36.30537 35.52156,-40.08593 5.05679,-1.0155 13.9536,-0.69134 18.6991,0.68131 22.63155,6.54624 35.08437,31.2634 27.54711,54.67728 -4.39774,13.66123 -15.48061,24.92883 -28.79677,29.27676 -5.23939,1.71074 -12.04502,2.44727 -16.96883,1.83642 z m 8.96346,-22.2496 c 9.42143,-3.17386 15.98466,-12.6974 16.06275,-23.30779 0.0627,-8.52092 -3.4261,-14.949 -9.8207,-18.09449 -2.78616,-1.3705 -3.25838,-1.46075 -7.64315,-1.46075 -4.31379,0 -4.89937,0.10702 -7.60782,1.39035 -4.4338,2.10085 -8.86109,6.49722 -11.08314,11.00574 -3.72546,7.55889 -4.02808,14.77447 -0.89999,21.45904 3.83155,8.18784 12.44922,11.88576 20.99205,9.0079 z"
         id="path108"
         transform="scale(0.26458333)" />
    </g>
    <g
       transform="matrix(1.2207275,0,0,1.2207275,100.51145,165.57474)"
       ns1:version="1.10.2"
       ns1:texconverter="pdflatex"
       ns1:pdfconverter="inkscape"
       ns1:text="$M$"
       ns1:preamble="/home/josua/.config/inkscape/extensions/textext/default_packages.tex"
       ns1:scale="1.0"
       ns1:alignment="middle center"
       ns1:stroke-to-path="0"
       ns1:inkscapeversion="1.3.2"
       id="g5193"
       ns1:jacobian_sqrt="0.352778"
       inkscape:label="M">
      <defs
         id="id-d487b1ae-57ab-49a2-956d-22a663fc169d">
        <g
           id="id-563a8e89-2a7a-4a85-aacb-024f32d301cd">
          <symbol
             overflow="visible"
             id="id-1622dab6-2c7f-4ac5-8e35-c3d17a83804c">
            <path
               style="stroke:none;stroke-width:0"
               d=""
               id="id-561baa18-cb22-4dd4-ae34-2e764fd0bac4" />
          </symbol>
          <symbol
             overflow="visible"
             id="id-d63b0982-f143-4bfc-83c2-041a9749aa17">
            <path
               style="stroke:none;stroke-width:0"
               d="M 9.234375,-6.046875 C 9.328125,-6.40625 9.34375,-6.5 10.09375,-6.5 c 0.21875,0 0.3125,0 0.3125,-0.203125 0,-0.109375 -0.09375,-0.109375 -0.265625,-0.109375 h -1.3125 c -0.265625,0 -0.28125,0 -0.390625,0.1875 L 4.796875,-0.9375 4.015625,-6.578125 C 3.984375,-6.8125 3.96875,-6.8125 3.703125,-6.8125 H 2.34375 c -0.1875,0 -0.296875,0 -0.296875,0.1875 0,0.125 0.09375,0.125 0.28125,0.125 0.140625,0 0.3125,0.015625 0.4375,0.015625 0.15625,0.03125 0.21875,0.046875 0.21875,0.171875 0,0.03125 -0.015625,0.0625 -0.046875,0.1875 l -1.265625,5.0625 c -0.09375,0.40625 -0.265625,0.71875 -1.078125,0.75 -0.046875,0 -0.171875,0.015625 -0.171875,0.1875 0,0.09375 0.0625,0.125 0.140625,0.125 0.3125,0 0.65625,-0.03125 1,-0.03125 C 1.890625,-0.03125 2.25,0 2.578125,0 c 0.046875,0 0.1875,0 0.1875,-0.203125 0,-0.109375 -0.109375,-0.109375 -0.1875,-0.109375 -0.5625,0 -0.671875,-0.203125 -0.671875,-0.4375 0,-0.0625 0,-0.125 0.03125,-0.234375 L 3.296875,-6.40625 H 3.3125 l 0.859375,6.171875 C 4.1875,-0.109375 4.203125,0 4.3125,0 4.421875,0 4.484375,-0.109375 4.53125,-0.171875 l 4.03125,-6.3125 h 0.015625 l -1.4375,5.703125 c -0.09375,0.390625 -0.109375,0.46875 -0.90625,0.46875 -0.15625,0 -0.265625,0 -0.265625,0.1875 C 5.96875,0 6.078125,0 6.109375,0 6.390625,0 7.0625,-0.03125 7.34375,-0.03125 7.75,-0.03125 8.1875,0 8.59375,0 8.65625,0 8.78125,0 8.78125,-0.203125 8.78125,-0.3125 8.6875,-0.3125 8.5,-0.3125 c -0.359375,0 -0.640625,0 -0.640625,-0.171875 0,-0.046875 0,-0.0625 0.046875,-0.25 z m 0,0"
               id="id-6bdec8d4-e727-465e-9df4-b415a0b71af6" />
          </symbol>
        </g>
      </defs>
      <g
         id="id-f7503bc2-b429-402d-be12-551f4b42b4f9"
         transform="translate(-149.134,-127.953)">
        <g
           style="fill:#000000;fill-opacity:1"
           id="id-208882a6-15b6-477c-83a5-c0e2ef9c9ba8">
          <g
             transform="translate(148.712,134.765)"
             id="g7844">
            <path
               style="stroke:none;stroke-width:0"
               d="M 9.234375,-6.046875 C 9.328125,-6.40625 9.34375,-6.5 10.09375,-6.5 c 0.21875,0 0.3125,0 0.3125,-0.203125 0,-0.109375 -0.09375,-0.109375 -0.265625,-0.109375 h -1.3125 c -0.265625,0 -0.28125,0 -0.390625,0.1875 L 4.796875,-0.9375 4.015625,-6.578125 C 3.984375,-6.8125 3.96875,-6.8125 3.703125,-6.8125 H 2.34375 c -0.1875,0 -0.296875,0 -0.296875,0.1875 0,0.125 0.09375,0.125 0.28125,0.125 0.140625,0 0.3125,0.015625 0.4375,0.015625 0.15625,0.03125 0.21875,0.046875 0.21875,0.171875 0,0.03125 -0.015625,0.0625 -0.046875,0.1875 l -1.265625,5.0625 c -0.09375,0.40625 -0.265625,0.71875 -1.078125,0.75 -0.046875,0 -0.171875,0.015625 -0.171875,0.1875 0,0.09375 0.0625,0.125 0.140625,0.125 0.3125,0 0.65625,-0.03125 1,-0.03125 C 1.890625,-0.03125 2.25,0 2.578125,0 c 0.046875,0 0.1875,0 0.1875,-0.203125 0,-0.109375 -0.109375,-0.109375 -0.1875,-0.109375 -0.5625,0 -0.671875,-0.203125 -0.671875,-0.4375 0,-0.0625 0,-0.125 0.03125,-0.234375 L 3.296875,-6.40625 H 3.3125 l 0.859375,6.171875 C 4.1875,-0.109375 4.203125,0 4.3125,0 4.421875,0 4.484375,-0.109375 4.53125,-0.171875 l 4.03125,-6.3125 h 0.015625 l -1.4375,5.703125 c -0.09375,0.390625 -0.109375,0.46875 -0.90625,0.46875 -0.15625,0 -0.265625,0 -0.265625,0.1875 C 5.96875,0 6.078125,0 6.109375,0 6.390625,0 7.0625,-0.03125 7.34375,-0.03125 7.75,-0.03125 8.1875,0 8.59375,0 8.65625,0 8.78125,0 8.78125,-0.203125 8.78125,-0.3125 8.6875,-0.3125 8.5,-0.3125 c -0.359375,0 -0.640625,0 -0.640625,-0.171875 0,-0.046875 0,-0.0625 0.046875,-0.25 z m 0,0"
               id="id-b754b712-eaa1-443b-b1a2-666c0ee1df4a" />
          </g>
        </g>
      </g>
    </g>
    <path
       style="fill:none;stroke:#000000;stroke-width:0.915544px;stroke-linecap:butt;stroke-linejoin:miter;stroke-opacity:1"
       d="m 92.027027,172.99685 20.260053,12.02248"
       id="path114" />
  </g>
</svg>
