<?xml version="1.0" encoding="UTF-8" standalone="no"?>
<!-- Created with Inkscape (http://www.inkscape.org/) -->

<svg
   width="174mm"
   height="91mm"
   viewBox="0 0 174 91"
   version="1.1"
   id="svg1"
   inkscape:version="1.3.2 (1:1.3.2+202311252150+091e20ef0f)"
   sodipodi:docname="blow_down_topology.svg"
   inkscape:export-filename="blow_down_topology.pdf"
   inkscape:export-xdpi="96"
   inkscape:export-ydpi="96"
   xmlns:inkscape="http://www.inkscape.org/namespaces/inkscape"
   xmlns:sodipodi="http://sodipodi.sourceforge.net/DTD/sodipodi-0.dtd"
   xmlns="http://www.w3.org/2000/svg"
   xmlns:svg="http://www.w3.org/2000/svg"
   xmlns:ns8="http://www.iki.fi/pav/software/textext/">
  <sodipodi:namedview
     id="namedview1"
     pagecolor="#ffffff"
     bordercolor="#666666"
     borderopacity="1.0"
     inkscape:showpageshadow="2"
     inkscape:pageopacity="0.0"
     inkscape:pagecheckerboard="0"
     inkscape:deskcolor="#d1d1d1"
     inkscape:document-units="mm"
     inkscape:zoom="4.4361876"
     inkscape:cx="442.8352"
     inkscape:cy="190.47887"
     inkscape:window-width="1920"
     inkscape:window-height="1016"
     inkscape:window-x="0"
     inkscape:window-y="27"
     inkscape:window-maximized="1"
     inkscape:current-layer="layer1" />
  <defs
     id="defs1">
    <marker
       style="overflow:visible"
       id="ArrowWide"
       refX="0"
       refY="0"
       orient="auto-start-reverse"
       inkscape:stockid="Wide arrow"
       markerWidth="2"
       markerHeight="2"
       viewBox="0 0 1 1"
       inkscape:isstock="true"
       inkscape:collect="always"
       preserveAspectRatio="xMidYMid">
      <path
         style="fill:none;stroke:context-stroke;stroke-width:1;stroke-linecap:butt"
         d="M 3,-3 0,0 3,3"
         transform="rotate(180,0.125,0)"
         sodipodi:nodetypes="ccc"
         id="path1" />
    </marker>
    <linearGradient
       id="swatch108"
       inkscape:swatch="solid">
      <stop
         style="stop-color:#000000;stop-opacity:1;"
         offset="0"
         id="stop108" />
    </linearGradient>
    <inkscape:path-effect
       effect="spiro"
       id="path-effect5"
       is_visible="true"
       lpeversion="1" />
  </defs>
  <g
     inkscape:label="Layer 1"
     inkscape:groupmode="layer"
     id="layer1">
    <g
       id="g110"
       inkscape:label="neighborhood of gd"
       transform="matrix(1.7755635,0,0,1.7755635,-56.979772,-68.360405)">
      <path
         style="display:inline;fill:#cccccc;fill-opacity:1;stroke:#000000;stroke-width:0.171811;stroke-dasharray:0.687244, 0.687244;stroke-dashoffset:0;stroke-opacity:1"
         id="path8-3"
         sodipodi:type="arc"
         sodipodi:cx="72.716927"
         sodipodi:cy="40.617729"
         sodipodi:rx="11.208045"
         sodipodi:ry="11.811443"
         sodipodi:start="0"
         sodipodi:end="6.274476"
         sodipodi:open="true"
         sodipodi:arc-type="arc"
         d="M 83.924972,40.617729 A 11.208045,11.811443 0 0 1 72.74133,52.429145 11.208045,11.811443 0 0 1 61.508988,40.669164 11.208045,11.811443 0 0 1 72.643716,28.806538 11.208045,11.811443 0 0 1 83.924547,40.514861"
         transform="rotate(22.407689)"
         inkscape:label="path8-3" />
      <path
         style="fill:#ffffff;fill-opacity:1;stroke:#000000;stroke-width:0.165;stroke-dasharray:0.66, 0.66;stroke-dashoffset:0;stroke-opacity:1"
         id="path7-9"
         sodipodi:type="arc"
         sodipodi:cx="72.671173"
         sodipodi:cy="40.45311"
         sodipodi:rx="4.9179664"
         sodipodi:ry="5.8443103"
         sodipodi:start="0"
         sodipodi:end="6.274476"
         sodipodi:arc-type="arc"
         d="m 77.589139,40.45311 a 4.9179664,5.8443103 0 0 1 -4.907258,5.844296 4.9179664,5.8443103 0 0 1 -4.928628,-5.818846 4.9179664,5.8443103 0 0 1 4.885796,-5.869636 4.9179664,5.8443103 0 0 1 4.949904,5.793286"
         sodipodi:open="true"
         transform="rotate(22.407689)" />
    </g>
    <path
       style="fill:none;stroke:#000000;stroke-width:0.230727px;stroke-linecap:butt;stroke-linejoin:miter;stroke-opacity:1"
       d="m 99.333426,46.040618 c 0.441617,-12.659901 2.135704,-14.690382 8.238084,-19.062427 13.89213,-9.952981 44.36455,0.573345 43.45071,12.283867"
       id="path113"
       sodipodi:nodetypes="csc" />
    <path
       style="fill:#00b5ff;fill-opacity:1;stroke:#000000;stroke-width:0.230727px;stroke-linecap:butt;stroke-linejoin:miter;stroke-opacity:1"
       d="m 99.348691,45.270061 c 1.224949,43.371657 54.634799,3.060715 51.844119,-6.538206"
       id="path111"
       sodipodi:nodetypes="cc" />
    <path
       style="fill:#00b5ff;fill-opacity:1;stroke:#000000;stroke-width:0.143886;stroke-linecap:butt;stroke-linejoin:miter;stroke-dasharray:0.575545, 0.575545;stroke-dashoffset:0;stroke-opacity:1"
       d="m 99.304327,46.23893 c 0.57109,-8.732669 6.620223,-11.705196 9.123493,-13.472442 2.68559,-1.895953 14.94271,-9.276696 33.43881,-1.218277 5.73853,2.500179 9.44493,7.628837 9.44493,7.628837"
       id="path112"
       sodipodi:nodetypes="cssc" />
    <g
       id="g114"
       style="fill:#ffffff;fill-opacity:1"
       transform="matrix(0.87203888,0,0,0.87203888,-1.5680264,-16.238303)">
      <path
         style="fill:#ffffff;fill-opacity:1;stroke:#000000;stroke-width:0.109776px;stroke-linecap:butt;stroke-linejoin:miter;stroke-dasharray:0.439104, 0.439104;stroke-dashoffset:0;stroke-opacity:1"
         d="m 133.41126,70.801758 c 0.54939,21.890694 22.23782,0.710439 20.9862,-4.134364"
         id="path111-6"
         sodipodi:nodetypes="cc" />
      <path
         style="fill:#ffffff;fill-opacity:1;stroke:#000000;stroke-width:0.068;stroke-linecap:butt;stroke-linejoin:miter;stroke-dasharray:0.272, 0.272;stroke-dashoffset:0;stroke-opacity:1"
         d="m 133.39136,70.816548 c 0.25614,-4.407576 2.96916,-5.907887 4.09187,-6.799854 1.20448,-0.956941 6.70178,-4.682195 14.99724,-0.614898 2.57372,1.261905 1.598,4.060125 1.598,4.060125"
         id="path112-2"
         sodipodi:nodetypes="cssc" />
    </g>
    <path
       style="fill:none;stroke:#000000;stroke-width:0.0957287px;stroke-linecap:butt;stroke-linejoin:miter;stroke-dasharray:0.382916, 0.382916;stroke-dashoffset:0;stroke-opacity:1"
       d="m 114.76555,45.429168 c 0.17276,-5.572107 0.8353,-6.465808 3.22198,-8.390121 5.43332,-4.380716 15.28475,0.525517 14.92732,5.679777"
       id="path113-6"
       sodipodi:nodetypes="csc" />
    <g
       transform="matrix(0.62637973,0,0,0.62637973,42.842158,67.922117)"
       ns8:version="1.10.2"
       ns8:texconverter="pdflatex"
       ns8:pdfconverter="inkscape"
       ns8:text="$M \\times S^1 \\times [0, \\epsilon)$"
       ns8:preamble="/home/josua/.config/inkscape/extensions/textext/default_packages.tex"
       ns8:scale="1.0"
       ns8:alignment="middle center"
       ns8:stroke-to-path="0"
       ns8:inkscapeversion="1.3.2"
       id="g8894"
       ns8:jacobian_sqrt="0.352778"
       style="fill:#868686;fill-opacity:1;stroke:#cccccc;stroke-opacity:1">
      <defs
         id="id-1f960a75-1f8b-46e4-bd3d-601d36e5448f">
        <g
           id="id-33029a55-c3bc-4228-a612-7cb84cc0a7ac">
          <symbol
             overflow="visible"
             id="id-9c57559b-4010-4414-91e4-dfb8eed343aa">
            <path
               style="stroke:none;stroke-width:0"
               d=""
               id="id-5ca7223f-cba1-43bd-80db-393f36926a8b" />
          </symbol>
          <symbol
             overflow="visible"
             id="id-8b495931-afde-417c-9c3c-206247205b46">
            <path
               style="stroke:none;stroke-width:0"
               d="M 9.234375,-6.046875 C 9.328125,-6.40625 9.34375,-6.5 10.09375,-6.5 c 0.21875,0 0.3125,0 0.3125,-0.203125 0,-0.109375 -0.09375,-0.109375 -0.265625,-0.109375 h -1.3125 c -0.265625,0 -0.28125,0 -0.390625,0.1875 L 4.796875,-0.9375 4.015625,-6.578125 C 3.984375,-6.8125 3.96875,-6.8125 3.703125,-6.8125 H 2.34375 c -0.1875,0 -0.296875,0 -0.296875,0.1875 0,0.125 0.09375,0.125 0.28125,0.125 0.140625,0 0.3125,0.015625 0.4375,0.015625 0.15625,0.03125 0.21875,0.046875 0.21875,0.171875 0,0.03125 -0.015625,0.0625 -0.046875,0.1875 l -1.265625,5.0625 c -0.09375,0.40625 -0.265625,0.71875 -1.078125,0.75 -0.046875,0 -0.171875,0.015625 -0.171875,0.1875 0,0.09375 0.0625,0.125 0.140625,0.125 0.3125,0 0.65625,-0.03125 1,-0.03125 C 1.890625,-0.03125 2.25,0 2.578125,0 c 0.046875,0 0.1875,0 0.1875,-0.203125 0,-0.109375 -0.109375,-0.109375 -0.1875,-0.109375 -0.5625,0 -0.671875,-0.203125 -0.671875,-0.4375 0,-0.0625 0,-0.125 0.03125,-0.234375 L 3.296875,-6.40625 H 3.3125 l 0.859375,6.171875 C 4.1875,-0.109375 4.203125,0 4.3125,0 4.421875,0 4.484375,-0.109375 4.53125,-0.171875 l 4.03125,-6.3125 h 0.015625 l -1.4375,5.703125 c -0.09375,0.390625 -0.109375,0.46875 -0.90625,0.46875 -0.15625,0 -0.265625,0 -0.265625,0.1875 C 5.96875,0 6.078125,0 6.109375,0 6.390625,0 7.0625,-0.03125 7.34375,-0.03125 7.75,-0.03125 8.1875,0 8.59375,0 8.65625,0 8.78125,0 8.78125,-0.203125 8.78125,-0.3125 8.6875,-0.3125 8.5,-0.3125 c -0.359375,0 -0.640625,0 -0.640625,-0.171875 0,-0.046875 0,-0.0625 0.046875,-0.25 z m 0,0"
               id="id-641ef9ae-2deb-497e-aaec-56dac68ab6f1" />
          </symbol>
          <symbol
             overflow="visible"
             id="id-e3917b65-fbb0-477d-b560-98d1f9741f05">
            <path
               style="stroke:none;stroke-width:0"
               d="m 6.4375,-6.921875 c 0,-0.03125 -0.03125,-0.109375 -0.125,-0.109375 -0.046875,0 -0.046875,0.015625 -0.171875,0.15625 L 5.65625,-6.3125 c -0.25,-0.46875 -0.765625,-0.71875 -1.421875,-0.71875 -1.265625,0 -2.453125,1.15625 -2.453125,2.359375 0,0.796875 0.515625,1.265625 1.03125,1.40625 l 1.0625,0.28125 c 0.375,0.09375 0.921875,0.25 0.921875,1.0625 0,0.890625 -0.8125,1.828125 -1.796875,1.828125 -0.640625,0 -1.75,-0.21875 -1.75,-1.453125 0,-0.234375 0.0625,-0.484375 0.0625,-0.53125 0.015625,-0.046875 0.015625,-0.0625 0.015625,-0.078125 0,-0.09375 -0.0625,-0.109375 -0.109375,-0.109375 -0.046875,0 -0.078125,0.015625 -0.109375,0.046875 -0.03125,0.03125 -0.59375,2.3125 -0.59375,2.34375 0,0.046875 0.046875,0.09375 0.109375,0.09375 0.046875,0 0.0625,-0.015625 0.1875,-0.15625 L 1.296875,-0.5 c 0.421875,0.578125 1.109375,0.71875 1.6875,0.71875 1.359375,0 2.53125,-1.328125 2.53125,-2.5625 0,-0.6875 -0.34375,-1.03125 -0.484375,-1.171875 C 4.796875,-3.734375 4.640625,-3.78125 3.765625,-4 3.53125,-4.0625 3.1875,-4.171875 3.09375,-4.1875 2.828125,-4.28125 2.484375,-4.5625 2.484375,-5.09375 c 0,-0.8125 0.796875,-1.65625 1.75,-1.65625 0.8125,0 1.421875,0.4375 1.421875,1.546875 0,0.3125 -0.03125,0.5 -0.03125,0.5625 0,0 0,0.09375 0.109375,0.09375 0.109375,0 0.125,-0.03125 0.15625,-0.203125 z m 0,0"
               id="id-a390b4f1-72bc-4777-9e6f-3bc0c270c42a" />
          </symbol>
          <symbol
             overflow="visible"
             id="id-2f1f9d4d-bc80-4630-83c3-c15fe8106eed">
            <path
               style="stroke:none;stroke-width:0"
               d="m 2.03125,-0.015625 c 0,-0.65625 -0.25,-1.046875 -0.640625,-1.046875 -0.328125,0 -0.53125,0.25 -0.53125,0.53125 C 0.859375,-0.265625 1.0625,0 1.390625,0 1.5,0 1.640625,-0.046875 1.734375,-0.125 1.765625,-0.15625 1.78125,-0.15625 1.78125,-0.15625 c 0.015625,0 0.015625,0 0.015625,0.140625 0,0.75 -0.34375,1.34375 -0.671875,1.671875 -0.109375,0.109375 -0.109375,0.125 -0.109375,0.15625 0,0.078125 0.046875,0.109375 0.09375,0.109375 0.109375,0 0.921875,-0.765625 0.921875,-1.9375 z m 0,0"
               id="id-ebf012b7-f559-4ecb-bd9e-345810ce9b16" />
          </symbol>
          <symbol
             overflow="visible"
             id="id-d37b3d3b-8e00-46f3-8205-f904920f3d28">
            <path
               style="stroke:none;stroke-width:0"
               d="m 2.96875,-2.25 c 0.15625,0 0.34375,0 0.34375,-0.171875 C 3.3125,-2.5625 3.1875,-2.5625 3.015625,-2.5625 H 1.40625 c 0.234375,-0.84375 0.796875,-1.421875 1.703125,-1.421875 h 0.3125 c 0.171875,0 0.328125,0 0.328125,-0.171875 0,-0.140625 -0.125,-0.140625 -0.296875,-0.140625 H 3.09375 c -1.296875,0 -2.625,1 -2.625,2.515625 0,1.109375 0.75,1.890625 1.796875,1.890625 0.65625,0 1.296875,-0.40625 1.296875,-0.515625 0,-0.015625 0,-0.125 -0.09375,-0.125 -0.015625,0 -0.046875,0 -0.125,0.046875 -0.3125,0.203125 -0.6875,0.375 -1.046875,0.375 -0.578125,0 -1.078125,-0.421875 -1.078125,-1.296875 0,-0.34375 0.078125,-0.734375 0.109375,-0.84375 z m 0,0"
               id="id-5507ce3e-9f6b-40a7-90fc-528de7f8943a" />
          </symbol>
          <symbol
             overflow="visible"
             id="id-ff2aefea-cdf3-4d92-9527-54cb7d20c468">
            <path
               style="stroke:none;stroke-width:0"
               d=""
               id="id-c7c90ec2-411f-4c79-ac21-4ad4daab2698" />
          </symbol>
          <symbol
             overflow="visible"
             id="id-e581102f-59cd-4efc-9162-5405ae428f8f">
            <path
               style="stroke:none;stroke-width:0"
               d="M 3.875,-2.765625 1.890625,-4.75 C 1.765625,-4.875 1.75,-4.890625 1.671875,-4.890625 1.5625,-4.890625 1.46875,-4.8125 1.46875,-4.6875 c 0,0.0625 0.015625,0.078125 0.125,0.1875 l 2,2 -2,2.015625 c -0.109375,0.109375 -0.125,0.125 -0.125,0.1875 0,0.125 0.09375,0.203125 0.203125,0.203125 0.078125,0 0.09375,-0.015625 0.21875,-0.140625 L 3.875,-2.21875 l 2.0625,2.0625 c 0.015625,0.015625 0.078125,0.0625 0.140625,0.0625 0.125,0 0.203125,-0.078125 0.203125,-0.203125 0,-0.015625 0,-0.046875 -0.03125,-0.109375 C 6.234375,-0.421875 4.65625,-1.984375 4.15625,-2.5 l 1.828125,-1.8125 c 0.046875,-0.0625 0.203125,-0.1875 0.25,-0.25 0,-0.015625 0.046875,-0.0625 0.046875,-0.125 0,-0.125 -0.078125,-0.203125 -0.203125,-0.203125 C 6,-4.890625 5.96875,-4.859375 5.859375,-4.75 Z m 0,0"
               id="id-c918d65c-fb7a-4de7-b5d9-3f9d0b58b906" />
          </symbol>
          <symbol
             overflow="visible"
             id="id-3af1c48c-0f49-4cb5-91da-a2fca903dd89">
            <path
               style="stroke:none;stroke-width:0"
               d=""
               id="id-a2e27859-3cbf-4fba-87b4-3fdc13b52779" />
          </symbol>
          <symbol
             overflow="visible"
             id="id-11f31e0c-103d-4183-b5d5-24c5d0c9aa79">
            <path
               style="stroke:none;stroke-width:0"
               d="m 2.328125,-4.4375 c 0,-0.1875 0,-0.1875 -0.203125,-0.1875 -0.453125,0.4375 -1.078125,0.4375 -1.359375,0.4375 v 0.25 c 0.15625,0 0.625,0 1,-0.1875 v 3.546875 c 0,0.234375 0,0.328125 -0.6875,0.328125 H 0.8125 V 0 c 0.125,0 0.984375,-0.03125 1.234375,-0.03125 0.21875,0 1.09375,0.03125 1.25,0.03125 V -0.25 H 3.03125 c -0.703125,0 -0.703125,-0.09375 -0.703125,-0.328125 z m 0,0"
               id="id-625648d5-495c-4149-a223-b73a6b5530be" />
          </symbol>
          <symbol
             overflow="visible"
             id="id-a7492bd1-e186-4e6c-a28c-0a546edcfc68">
            <path
               style="stroke:none;stroke-width:0"
               d=""
               id="id-73e968c1-7cdd-4109-9d17-3af265070417" />
          </symbol>
          <symbol
             overflow="visible"
             id="id-f8c028b5-be55-4e18-9e1b-10d30e58c7b4">
            <path
               style="stroke:none;stroke-width:0"
               d="M 2.546875,2.5 V 2.09375 h -0.96875 v -9.171875 h 0.96875 v -0.40625 h -1.375 V 2.5 Z m 0,0"
               id="id-e4efc5c4-88c3-4458-bcdc-e6f77fb7bd72" />
          </symbol>
          <symbol
             overflow="visible"
             id="id-44464aab-c2d1-4dc8-a0e0-23cfe36c9819">
            <path
               style="stroke:none;stroke-width:0"
               d="m 4.578125,-3.1875 c 0,-0.796875 -0.046875,-1.59375 -0.390625,-2.328125 -0.453125,-0.96875 -1.28125,-1.125 -1.6875,-1.125 -0.609375,0 -1.328125,0.265625 -1.75,1.1875 -0.3125,0.6875 -0.359375,1.46875 -0.359375,2.265625 0,0.75 0.03125,1.640625 0.453125,2.40625 0.421875,0.796875 1.15625,1 1.640625,1 0.53125,0 1.296875,-0.203125 1.734375,-1.15625 0.3125,-0.6875 0.359375,-1.46875 0.359375,-2.25 z M 2.484375,0 C 2.09375,0 1.5,-0.25 1.328125,-1.203125 1.21875,-1.796875 1.21875,-2.71875 1.21875,-3.3125 c 0,-0.640625 0,-1.296875 0.078125,-1.828125 0.1875,-1.1875 0.9375,-1.28125 1.1875,-1.28125 0.328125,0 0.984375,0.1875 1.171875,1.171875 0.109375,0.5625 0.109375,1.3125 0.109375,1.9375 0,0.75 0,1.421875 -0.109375,2.0625 C 3.5,-0.296875 2.9375,0 2.484375,0 Z m 0,0"
               id="id-300811a6-27e0-4362-9e2a-6b04c00918d8" />
          </symbol>
          <symbol
             overflow="visible"
             id="id-81549106-a752-4aa8-909b-994a2a668e19">
            <path
               style="stroke:none;stroke-width:0"
               d="m 2.875,-2.5 c 0,-0.765625 -0.109375,-1.96875 -0.65625,-3.109375 -0.59375,-1.21875 -1.453125,-1.875 -1.546875,-1.875 -0.0625,0 -0.109375,0.046875 -0.109375,0.109375 0,0.03125 0,0.046875 0.1875,0.234375 0.984375,0.984375 1.546875,2.5625 1.546875,4.640625 0,1.71875 -0.359375,3.46875 -1.59375,4.71875 C 0.5625,2.34375 0.5625,2.359375 0.5625,2.390625 0.5625,2.453125 0.609375,2.5 0.671875,2.5 0.765625,2.5 1.671875,1.8125 2.25,0.546875 2.765625,-0.546875 2.875,-1.65625 2.875,-2.5 Z m 0,0"
               id="id-2219623b-2b87-40df-bd38-6a4230b06bf0" />
          </symbol>
        </g>
      </defs>
      <g
         id="id-825f7fab-66ad-441e-91a0-f8ba77ff042c"
         transform="translate(-149.134,-126.524)"
         style="fill:#868686;fill-opacity:1;stroke:#cccccc;stroke-opacity:1">
        <g
           style="fill:#868686;fill-opacity:1;stroke:#cccccc;stroke-opacity:1"
           id="id-dffc05ac-9f38-4932-8b52-b1f58c643caf">
          <g
             transform="translate(148.712,134.765)"
             id="g6313"
             style="fill:#868686;fill-opacity:1;stroke:#cccccc;stroke-opacity:1">
            <path
               style="fill:#868686;fill-opacity:1;stroke:#cccccc;stroke-width:0;stroke-opacity:1"
               d="M 9.234375,-6.046875 C 9.328125,-6.40625 9.34375,-6.5 10.09375,-6.5 c 0.21875,0 0.3125,0 0.3125,-0.203125 0,-0.109375 -0.09375,-0.109375 -0.265625,-0.109375 h -1.3125 c -0.265625,0 -0.28125,0 -0.390625,0.1875 L 4.796875,-0.9375 4.015625,-6.578125 C 3.984375,-6.8125 3.96875,-6.8125 3.703125,-6.8125 H 2.34375 c -0.1875,0 -0.296875,0 -0.296875,0.1875 0,0.125 0.09375,0.125 0.28125,0.125 0.140625,0 0.3125,0.015625 0.4375,0.015625 0.15625,0.03125 0.21875,0.046875 0.21875,0.171875 0,0.03125 -0.015625,0.0625 -0.046875,0.1875 l -1.265625,5.0625 c -0.09375,0.40625 -0.265625,0.71875 -1.078125,0.75 -0.046875,0 -0.171875,0.015625 -0.171875,0.1875 0,0.09375 0.0625,0.125 0.140625,0.125 0.3125,0 0.65625,-0.03125 1,-0.03125 C 1.890625,-0.03125 2.25,0 2.578125,0 c 0.046875,0 0.1875,0 0.1875,-0.203125 0,-0.109375 -0.109375,-0.109375 -0.1875,-0.109375 -0.5625,0 -0.671875,-0.203125 -0.671875,-0.4375 0,-0.0625 0,-0.125 0.03125,-0.234375 L 3.296875,-6.40625 H 3.3125 l 0.859375,6.171875 C 4.1875,-0.109375 4.203125,0 4.3125,0 4.421875,0 4.484375,-0.109375 4.53125,-0.171875 l 4.03125,-6.3125 h 0.015625 l -1.4375,5.703125 c -0.09375,0.390625 -0.109375,0.46875 -0.90625,0.46875 -0.15625,0 -0.265625,0 -0.265625,0.1875 C 5.96875,0 6.078125,0 6.109375,0 6.390625,0 7.0625,-0.03125 7.34375,-0.03125 7.75,-0.03125 8.1875,0 8.59375,0 8.65625,0 8.78125,0 8.78125,-0.203125 8.78125,-0.3125 8.6875,-0.3125 8.5,-0.3125 c -0.359375,0 -0.640625,0 -0.640625,-0.171875 0,-0.046875 0,-0.0625 0.046875,-0.25 z m 0,0"
               id="id-ef82d4b5-14b3-4116-b8bb-d2476f5e7b5f" />
          </g>
        </g>
        <g
           style="fill:#868686;fill-opacity:1;stroke:#cccccc;stroke-opacity:1"
           id="id-a4937f75-e398-47fa-9aac-7e5ef270f954">
          <g
             transform="translate(161.678,134.765)"
             id="g3991"
             style="fill:#868686;fill-opacity:1;stroke:#cccccc;stroke-opacity:1">
            <path
               style="fill:#868686;fill-opacity:1;stroke:#cccccc;stroke-width:0;stroke-opacity:1"
               d="M 3.875,-2.765625 1.890625,-4.75 C 1.765625,-4.875 1.75,-4.890625 1.671875,-4.890625 1.5625,-4.890625 1.46875,-4.8125 1.46875,-4.6875 c 0,0.0625 0.015625,0.078125 0.125,0.1875 l 2,2 -2,2.015625 c -0.109375,0.109375 -0.125,0.125 -0.125,0.1875 0,0.125 0.09375,0.203125 0.203125,0.203125 0.078125,0 0.09375,-0.015625 0.21875,-0.140625 L 3.875,-2.21875 l 2.0625,2.0625 c 0.015625,0.015625 0.078125,0.0625 0.140625,0.0625 0.125,0 0.203125,-0.078125 0.203125,-0.203125 0,-0.015625 0,-0.046875 -0.03125,-0.109375 C 6.234375,-0.421875 4.65625,-1.984375 4.15625,-2.5 l 1.828125,-1.8125 c 0.046875,-0.0625 0.203125,-0.1875 0.25,-0.25 0,-0.015625 0.046875,-0.0625 0.046875,-0.125 0,-0.125 -0.078125,-0.203125 -0.203125,-0.203125 C 6,-4.890625 5.96875,-4.859375 5.859375,-4.75 Z m 0,0"
               id="id-80faff1a-d9b7-46f2-ac0a-4d4063e98079" />
          </g>
        </g>
        <g
           style="fill:#868686;fill-opacity:1;stroke:#cccccc;stroke-opacity:1"
           id="id-e30acfe9-91be-4a6f-b9d6-184926999a4c">
          <g
             transform="translate(171.64,134.765)"
             id="g7099"
             style="fill:#868686;fill-opacity:1;stroke:#cccccc;stroke-opacity:1">
            <path
               style="fill:#868686;fill-opacity:1;stroke:#cccccc;stroke-width:0;stroke-opacity:1"
               d="m 6.4375,-6.921875 c 0,-0.03125 -0.03125,-0.109375 -0.125,-0.109375 -0.046875,0 -0.046875,0.015625 -0.171875,0.15625 L 5.65625,-6.3125 c -0.25,-0.46875 -0.765625,-0.71875 -1.421875,-0.71875 -1.265625,0 -2.453125,1.15625 -2.453125,2.359375 0,0.796875 0.515625,1.265625 1.03125,1.40625 l 1.0625,0.28125 c 0.375,0.09375 0.921875,0.25 0.921875,1.0625 0,0.890625 -0.8125,1.828125 -1.796875,1.828125 -0.640625,0 -1.75,-0.21875 -1.75,-1.453125 0,-0.234375 0.0625,-0.484375 0.0625,-0.53125 0.015625,-0.046875 0.015625,-0.0625 0.015625,-0.078125 0,-0.09375 -0.0625,-0.109375 -0.109375,-0.109375 -0.046875,0 -0.078125,0.015625 -0.109375,0.046875 -0.03125,0.03125 -0.59375,2.3125 -0.59375,2.34375 0,0.046875 0.046875,0.09375 0.109375,0.09375 0.046875,0 0.0625,-0.015625 0.1875,-0.15625 L 1.296875,-0.5 c 0.421875,0.578125 1.109375,0.71875 1.6875,0.71875 1.359375,0 2.53125,-1.328125 2.53125,-2.5625 0,-0.6875 -0.34375,-1.03125 -0.484375,-1.171875 C 4.796875,-3.734375 4.640625,-3.78125 3.765625,-4 3.53125,-4.0625 3.1875,-4.171875 3.09375,-4.1875 2.828125,-4.28125 2.484375,-4.5625 2.484375,-5.09375 c 0,-0.8125 0.796875,-1.65625 1.75,-1.65625 0.8125,0 1.421875,0.4375 1.421875,1.546875 0,0.3125 -0.03125,0.5 -0.03125,0.5625 0,0 0,0.09375 0.109375,0.09375 0.109375,0 0.125,-0.03125 0.15625,-0.203125 z m 0,0"
               id="id-6a87762c-fb75-4ac8-89bd-d66021b8fd02" />
          </g>
        </g>
        <g
           style="fill:#868686;fill-opacity:1;stroke:#cccccc;stroke-opacity:1"
           id="id-2f7dc94c-dfaf-4fbd-b403-c7a18887a1c7">
          <g
             transform="translate(178.323,131.149)"
             id="g7728"
             style="fill:#868686;fill-opacity:1;stroke:#cccccc;stroke-opacity:1">
            <path
               style="fill:#868686;fill-opacity:1;stroke:#cccccc;stroke-width:0;stroke-opacity:1"
               d="m 2.328125,-4.4375 c 0,-0.1875 0,-0.1875 -0.203125,-0.1875 -0.453125,0.4375 -1.078125,0.4375 -1.359375,0.4375 v 0.25 c 0.15625,0 0.625,0 1,-0.1875 v 3.546875 c 0,0.234375 0,0.328125 -0.6875,0.328125 H 0.8125 V 0 c 0.125,0 0.984375,-0.03125 1.234375,-0.03125 0.21875,0 1.09375,0.03125 1.25,0.03125 V -0.25 H 3.03125 c -0.703125,0 -0.703125,-0.09375 -0.703125,-0.328125 z m 0,0"
               id="id-28b57214-a89f-4b62-99dc-f74d6cdae88d" />
          </g>
        </g>
        <g
           style="fill:#868686;fill-opacity:1;stroke:#cccccc;stroke-opacity:1"
           id="id-1ae6d5dc-9aea-4142-9bcd-6683136b7dee">
          <g
             transform="translate(185.007,134.765)"
             id="g5542"
             style="fill:#868686;fill-opacity:1;stroke:#cccccc;stroke-opacity:1">
            <path
               style="fill:#868686;fill-opacity:1;stroke:#cccccc;stroke-width:0;stroke-opacity:1"
               d="M 3.875,-2.765625 1.890625,-4.75 C 1.765625,-4.875 1.75,-4.890625 1.671875,-4.890625 1.5625,-4.890625 1.46875,-4.8125 1.46875,-4.6875 c 0,0.0625 0.015625,0.078125 0.125,0.1875 l 2,2 -2,2.015625 c -0.109375,0.109375 -0.125,0.125 -0.125,0.1875 0,0.125 0.09375,0.203125 0.203125,0.203125 0.078125,0 0.09375,-0.015625 0.21875,-0.140625 L 3.875,-2.21875 l 2.0625,2.0625 c 0.015625,0.015625 0.078125,0.0625 0.140625,0.0625 0.125,0 0.203125,-0.078125 0.203125,-0.203125 0,-0.015625 0,-0.046875 -0.03125,-0.109375 C 6.234375,-0.421875 4.65625,-1.984375 4.15625,-2.5 l 1.828125,-1.8125 c 0.046875,-0.0625 0.203125,-0.1875 0.25,-0.25 0,-0.015625 0.046875,-0.0625 0.046875,-0.125 0,-0.125 -0.078125,-0.203125 -0.203125,-0.203125 C 6,-4.890625 5.96875,-4.859375 5.859375,-4.75 Z m 0,0"
               id="id-6aab23a6-23f6-4b65-b8b9-4d678adedcbc" />
          </g>
        </g>
        <g
           style="fill:#868686;fill-opacity:1;stroke:#cccccc;stroke-opacity:1"
           id="id-73abc747-4995-4e5d-b4bf-9f11c775a10e">
          <g
             transform="translate(194.969,134.765)"
             id="g6043"
             style="fill:#868686;fill-opacity:1;stroke:#cccccc;stroke-opacity:1">
            <path
               style="fill:#868686;fill-opacity:1;stroke:#cccccc;stroke-width:0;stroke-opacity:1"
               d="M 2.546875,2.5 V 2.09375 h -0.96875 v -9.171875 h 0.96875 v -0.40625 h -1.375 V 2.5 Z m 0,0"
               id="id-92b11925-b33a-4823-a0a3-f6ff9426541e" />
          </g>
          <g
             transform="translate(197.737,134.765)"
             id="g9327"
             style="fill:#868686;fill-opacity:1;stroke:#cccccc;stroke-opacity:1">
            <path
               style="fill:#868686;fill-opacity:1;stroke:#cccccc;stroke-width:0;stroke-opacity:1"
               d="m 4.578125,-3.1875 c 0,-0.796875 -0.046875,-1.59375 -0.390625,-2.328125 -0.453125,-0.96875 -1.28125,-1.125 -1.6875,-1.125 -0.609375,0 -1.328125,0.265625 -1.75,1.1875 -0.3125,0.6875 -0.359375,1.46875 -0.359375,2.265625 0,0.75 0.03125,1.640625 0.453125,2.40625 0.421875,0.796875 1.15625,1 1.640625,1 0.53125,0 1.296875,-0.203125 1.734375,-1.15625 0.3125,-0.6875 0.359375,-1.46875 0.359375,-2.25 z M 2.484375,0 C 2.09375,0 1.5,-0.25 1.328125,-1.203125 1.21875,-1.796875 1.21875,-2.71875 1.21875,-3.3125 c 0,-0.640625 0,-1.296875 0.078125,-1.828125 0.1875,-1.1875 0.9375,-1.28125 1.1875,-1.28125 0.328125,0 0.984375,0.1875 1.171875,1.171875 0.109375,0.5625 0.109375,1.3125 0.109375,1.9375 0,0.75 0,1.421875 -0.109375,2.0625 C 3.5,-0.296875 2.9375,0 2.484375,0 Z m 0,0"
               id="id-aa6c92be-f076-4473-a29b-acc3d1a5e184" />
          </g>
        </g>
        <g
           style="fill:#868686;fill-opacity:1;stroke:#cccccc;stroke-opacity:1"
           id="id-6456addd-043b-4f16-b12b-fd72c406ad43">
          <g
             transform="translate(202.718,134.765)"
             id="g2847"
             style="fill:#868686;fill-opacity:1;stroke:#cccccc;stroke-opacity:1">
            <path
               style="fill:#868686;fill-opacity:1;stroke:#cccccc;stroke-width:0;stroke-opacity:1"
               d="m 2.03125,-0.015625 c 0,-0.65625 -0.25,-1.046875 -0.640625,-1.046875 -0.328125,0 -0.53125,0.25 -0.53125,0.53125 C 0.859375,-0.265625 1.0625,0 1.390625,0 1.5,0 1.640625,-0.046875 1.734375,-0.125 1.765625,-0.15625 1.78125,-0.15625 1.78125,-0.15625 c 0.015625,0 0.015625,0 0.015625,0.140625 0,0.75 -0.34375,1.34375 -0.671875,1.671875 -0.109375,0.109375 -0.109375,0.125 -0.109375,0.15625 0,0.078125 0.046875,0.109375 0.09375,0.109375 0.109375,0 0.921875,-0.765625 0.921875,-1.9375 z m 0,0"
               id="id-da50d559-6966-40f2-9b8c-6f174a2b46a5" />
          </g>
        </g>
        <g
           style="fill:#868686;fill-opacity:1;stroke:#cccccc;stroke-opacity:1"
           id="id-3d274c52-3de7-4ba4-918d-b38cc5343eee">
          <g
             transform="translate(207.149,134.765)"
             id="g547"
             style="fill:#868686;fill-opacity:1;stroke:#cccccc;stroke-opacity:1">
            <path
               style="fill:#868686;fill-opacity:1;stroke:#cccccc;stroke-width:0;stroke-opacity:1"
               d="m 2.96875,-2.25 c 0.15625,0 0.34375,0 0.34375,-0.171875 C 3.3125,-2.5625 3.1875,-2.5625 3.015625,-2.5625 H 1.40625 c 0.234375,-0.84375 0.796875,-1.421875 1.703125,-1.421875 h 0.3125 c 0.171875,0 0.328125,0 0.328125,-0.171875 0,-0.140625 -0.125,-0.140625 -0.296875,-0.140625 H 3.09375 c -1.296875,0 -2.625,1 -2.625,2.515625 0,1.109375 0.75,1.890625 1.796875,1.890625 0.65625,0 1.296875,-0.40625 1.296875,-0.515625 0,-0.015625 0,-0.125 -0.09375,-0.125 -0.015625,0 -0.046875,0 -0.125,0.046875 -0.3125,0.203125 -0.6875,0.375 -1.046875,0.375 -0.578125,0 -1.078125,-0.421875 -1.078125,-1.296875 0,-0.34375 0.078125,-0.734375 0.109375,-0.84375 z m 0,0"
               id="id-2fe00f89-44ab-4732-9de1-8d5ed8f12bf8" />
          </g>
        </g>
        <g
           style="fill:#868686;fill-opacity:1;stroke:#cccccc;stroke-opacity:1"
           id="id-aca1bcb5-4b06-406f-b363-6e1ac50a6531">
          <g
             transform="translate(211.19,134.765)"
             id="g606"
             style="fill:#868686;fill-opacity:1;stroke:#cccccc;stroke-opacity:1">
            <path
               style="fill:#868686;fill-opacity:1;stroke:#cccccc;stroke-width:0;stroke-opacity:1"
               d="m 2.875,-2.5 c 0,-0.765625 -0.109375,-1.96875 -0.65625,-3.109375 -0.59375,-1.21875 -1.453125,-1.875 -1.546875,-1.875 -0.0625,0 -0.109375,0.046875 -0.109375,0.109375 0,0.03125 0,0.046875 0.1875,0.234375 0.984375,0.984375 1.546875,2.5625 1.546875,4.640625 0,1.71875 -0.359375,3.46875 -1.59375,4.71875 C 0.5625,2.34375 0.5625,2.359375 0.5625,2.390625 0.5625,2.453125 0.609375,2.5 0.671875,2.5 0.765625,2.5 1.671875,1.8125 2.25,0.546875 2.765625,-0.546875 2.875,-1.65625 2.875,-2.5 Z m 0,0"
               id="id-625327d0-bc08-4a0b-a23f-5a4ebe95101e" />
          </g>
        </g>
      </g>
    </g>
    <g
       transform="matrix(0.62637973,0,0,0.62637973,139.55749,68.306921)"
       ns8:version="1.10.2"
       ns8:texconverter="pdflatex"
       ns8:pdfconverter="inkscape"
       ns8:text="$M \\times D^2$"
       ns8:preamble="/home/josua/.config/inkscape/extensions/textext/default_packages.tex"
       ns8:scale="1.0"
       ns8:alignment="middle center"
       ns8:stroke-to-path="0"
       ns8:inkscapeversion="1.3.2"
       id="g4581"
       ns8:jacobian_sqrt="0.352778"
       style="fill:#868686;fill-opacity:1">
      <defs
         id="id-f94f2f70-fcdb-4e9c-a7fc-cd54053cad15">
        <g
           id="id-bedb9267-c52d-470a-b966-9d74aabc8b1b">
          <symbol
             overflow="visible"
             id="id-d464c91e-6562-4886-bc11-688e3e1752d5">
            <path
               style="stroke:none;stroke-width:0"
               d=""
               id="id-08d32b04-b344-4cb5-88e5-9d78df4282f9" />
          </symbol>
          <symbol
             overflow="visible"
             id="id-53f83131-14b8-410c-a62d-bd5f14ac18bb">
            <path
               style="stroke:none;stroke-width:0"
               d="M 9.234375,-6.046875 C 9.328125,-6.40625 9.34375,-6.5 10.09375,-6.5 c 0.21875,0 0.3125,0 0.3125,-0.203125 0,-0.109375 -0.09375,-0.109375 -0.265625,-0.109375 h -1.3125 c -0.265625,0 -0.28125,0 -0.390625,0.1875 L 4.796875,-0.9375 4.015625,-6.578125 C 3.984375,-6.8125 3.96875,-6.8125 3.703125,-6.8125 H 2.34375 c -0.1875,0 -0.296875,0 -0.296875,0.1875 0,0.125 0.09375,0.125 0.28125,0.125 0.140625,0 0.3125,0.015625 0.4375,0.015625 0.15625,0.03125 0.21875,0.046875 0.21875,0.171875 0,0.03125 -0.015625,0.0625 -0.046875,0.1875 l -1.265625,5.0625 c -0.09375,0.40625 -0.265625,0.71875 -1.078125,0.75 -0.046875,0 -0.171875,0.015625 -0.171875,0.1875 0,0.09375 0.0625,0.125 0.140625,0.125 0.3125,0 0.65625,-0.03125 1,-0.03125 C 1.890625,-0.03125 2.25,0 2.578125,0 c 0.046875,0 0.1875,0 0.1875,-0.203125 0,-0.109375 -0.109375,-0.109375 -0.1875,-0.109375 -0.5625,0 -0.671875,-0.203125 -0.671875,-0.4375 0,-0.0625 0,-0.125 0.03125,-0.234375 L 3.296875,-6.40625 H 3.3125 l 0.859375,6.171875 C 4.1875,-0.109375 4.203125,0 4.3125,0 4.421875,0 4.484375,-0.109375 4.53125,-0.171875 l 4.03125,-6.3125 h 0.015625 l -1.4375,5.703125 c -0.09375,0.390625 -0.109375,0.46875 -0.90625,0.46875 -0.15625,0 -0.265625,0 -0.265625,0.1875 C 5.96875,0 6.078125,0 6.109375,0 6.390625,0 7.0625,-0.03125 7.34375,-0.03125 7.75,-0.03125 8.1875,0 8.59375,0 8.65625,0 8.78125,0 8.78125,-0.203125 8.78125,-0.3125 8.6875,-0.3125 8.5,-0.3125 c -0.359375,0 -0.640625,0 -0.640625,-0.171875 0,-0.046875 0,-0.0625 0.046875,-0.25 z m 0,0"
               id="id-e2360e1d-43f8-4f7a-8c7f-e1ee7665981a" />
          </symbol>
          <symbol
             overflow="visible"
             id="id-148ca54b-174a-41c6-a42d-81614ff7196b">
            <path
               style="stroke:none;stroke-width:0"
               d="m 1.578125,-0.78125 c -0.09375,0.390625 -0.109375,0.46875 -0.90625,0.46875 -0.15625,0 -0.265625,0 -0.265625,0.1875 C 0.40625,0 0.484375,0 0.671875,0 h 3.3125 c 2.0625,0 4.03125,-2.109375 4.03125,-4.28125 0,-1.40625 -0.84375,-2.53125 -2.34375,-2.53125 h -3.34375 c -0.1875,0 -0.296875,0 -0.296875,0.1875 0,0.125 0.078125,0.125 0.28125,0.125 0.125,0 0.3125,0.015625 0.421875,0.015625 0.171875,0.03125 0.21875,0.046875 0.21875,0.171875 0,0.03125 0,0.0625 -0.03125,0.1875 z M 3.734375,-6.125 C 3.828125,-6.46875 3.84375,-6.5 4.28125,-6.5 h 1.0625 c 0.96875,0 1.796875,0.53125 1.796875,1.84375 0,0.484375 -0.1875,2.125 -1.046875,3.21875 -0.28125,0.375 -1.0625,1.125 -2.296875,1.125 h -1.125 c -0.140625,0 -0.15625,0 -0.21875,0 -0.09375,-0.015625 -0.125,-0.03125 -0.125,-0.109375 0,-0.03125 0,-0.046875 0.046875,-0.21875 z m 0,0"
               id="id-586374ae-d162-475e-ba61-42e0820bf87e" />
          </symbol>
          <symbol
             overflow="visible"
             id="id-2aac0b0f-09f7-453d-b06b-2431f76d2392">
            <path
               style="stroke:none;stroke-width:0"
               d=""
               id="id-7ac8d80e-72f8-48a6-9a9d-1c460d5fb076" />
          </symbol>
          <symbol
             overflow="visible"
             id="id-3b09d344-195d-4ed5-a1fc-3e3b140dcc40">
            <path
               style="stroke:none;stroke-width:0"
               d="M 3.875,-2.765625 1.890625,-4.75 C 1.765625,-4.875 1.75,-4.890625 1.671875,-4.890625 1.5625,-4.890625 1.46875,-4.8125 1.46875,-4.6875 c 0,0.0625 0.015625,0.078125 0.125,0.1875 l 2,2 -2,2.015625 c -0.109375,0.109375 -0.125,0.125 -0.125,0.1875 0,0.125 0.09375,0.203125 0.203125,0.203125 0.078125,0 0.09375,-0.015625 0.21875,-0.140625 L 3.875,-2.21875 l 2.0625,2.0625 c 0.015625,0.015625 0.078125,0.0625 0.140625,0.0625 0.125,0 0.203125,-0.078125 0.203125,-0.203125 0,-0.015625 0,-0.046875 -0.03125,-0.109375 C 6.234375,-0.421875 4.65625,-1.984375 4.15625,-2.5 l 1.828125,-1.8125 c 0.046875,-0.0625 0.203125,-0.1875 0.25,-0.25 0,-0.015625 0.046875,-0.0625 0.046875,-0.125 0,-0.125 -0.078125,-0.203125 -0.203125,-0.203125 C 6,-4.890625 5.96875,-4.859375 5.859375,-4.75 Z m 0,0"
               id="id-537d44e9-5633-4908-bb67-4d2d1b70b4a4" />
          </symbol>
          <symbol
             overflow="visible"
             id="id-244a214d-9553-436b-b72d-8dab5eb24309">
            <path
               style="stroke:none;stroke-width:0"
               d=""
               id="id-0b27b299-e53e-4de1-bd9d-48ac814eabcf" />
          </symbol>
          <symbol
             overflow="visible"
             id="id-79e54698-aead-4ddb-aedb-ee2a111e1d5a">
            <path
               style="stroke:none;stroke-width:0"
               d="M 3.515625,-1.265625 H 3.28125 c -0.015625,0.15625 -0.09375,0.5625 -0.1875,0.625 C 3.046875,-0.59375 2.515625,-0.59375 2.40625,-0.59375 H 1.125 c 0.734375,-0.640625 0.984375,-0.84375 1.390625,-1.171875 0.515625,-0.40625 1,-0.84375 1,-1.5 0,-0.84375 -0.734375,-1.359375 -1.625,-1.359375 -0.859375,0 -1.453125,0.609375 -1.453125,1.25 0,0.34375 0.296875,0.390625 0.375,0.390625 0.15625,0 0.359375,-0.125 0.359375,-0.375 0,-0.125 -0.046875,-0.375 -0.40625,-0.375 C 0.984375,-4.21875 1.453125,-4.375 1.78125,-4.375 c 0.703125,0 1.0625,0.546875 1.0625,1.109375 0,0.609375 -0.4375,1.078125 -0.65625,1.328125 L 0.515625,-0.265625 C 0.4375,-0.203125 0.4375,-0.1875 0.4375,0 h 2.875 z m 0,0"
               id="id-91466149-4567-4ee8-87a0-b08c776a54d7" />
          </symbol>
        </g>
      </defs>
      <g
         id="id-bcd23b60-5f82-4700-b7b3-f8da30e70692"
         transform="translate(-149.134,-126.524)"
         style="fill:#868686;fill-opacity:1">
        <g
           style="fill:#868686;fill-opacity:1"
           id="id-0ca55f11-7f2c-4cab-b9e1-635e177dfda5">
          <g
             transform="translate(148.712,134.765)"
             id="g464"
             style="fill:#868686;fill-opacity:1">
            <path
               style="fill:#868686;fill-opacity:1;stroke:none;stroke-width:0"
               d="M 9.234375,-6.046875 C 9.328125,-6.40625 9.34375,-6.5 10.09375,-6.5 c 0.21875,0 0.3125,0 0.3125,-0.203125 0,-0.109375 -0.09375,-0.109375 -0.265625,-0.109375 h -1.3125 c -0.265625,0 -0.28125,0 -0.390625,0.1875 L 4.796875,-0.9375 4.015625,-6.578125 C 3.984375,-6.8125 3.96875,-6.8125 3.703125,-6.8125 H 2.34375 c -0.1875,0 -0.296875,0 -0.296875,0.1875 0,0.125 0.09375,0.125 0.28125,0.125 0.140625,0 0.3125,0.015625 0.4375,0.015625 0.15625,0.03125 0.21875,0.046875 0.21875,0.171875 0,0.03125 -0.015625,0.0625 -0.046875,0.1875 l -1.265625,5.0625 c -0.09375,0.40625 -0.265625,0.71875 -1.078125,0.75 -0.046875,0 -0.171875,0.015625 -0.171875,0.1875 0,0.09375 0.0625,0.125 0.140625,0.125 0.3125,0 0.65625,-0.03125 1,-0.03125 C 1.890625,-0.03125 2.25,0 2.578125,0 c 0.046875,0 0.1875,0 0.1875,-0.203125 0,-0.109375 -0.109375,-0.109375 -0.1875,-0.109375 -0.5625,0 -0.671875,-0.203125 -0.671875,-0.4375 0,-0.0625 0,-0.125 0.03125,-0.234375 L 3.296875,-6.40625 H 3.3125 l 0.859375,6.171875 C 4.1875,-0.109375 4.203125,0 4.3125,0 4.421875,0 4.484375,-0.109375 4.53125,-0.171875 l 4.03125,-6.3125 h 0.015625 l -1.4375,5.703125 c -0.09375,0.390625 -0.109375,0.46875 -0.90625,0.46875 -0.15625,0 -0.265625,0 -0.265625,0.1875 C 5.96875,0 6.078125,0 6.109375,0 6.390625,0 7.0625,-0.03125 7.34375,-0.03125 7.75,-0.03125 8.1875,0 8.59375,0 8.65625,0 8.78125,0 8.78125,-0.203125 8.78125,-0.3125 8.6875,-0.3125 8.5,-0.3125 c -0.359375,0 -0.640625,0 -0.640625,-0.171875 0,-0.046875 0,-0.0625 0.046875,-0.25 z m 0,0"
               id="id-5686b037-34f8-43b2-860f-c93e6863a5ff" />
          </g>
        </g>
        <g
           style="fill:#868686;fill-opacity:1"
           id="id-ae0c8536-00c4-425b-891e-beb1fa04b8a1">
          <g
             transform="translate(161.678,134.765)"
             id="g78"
             style="fill:#868686;fill-opacity:1">
            <path
               style="fill:#868686;fill-opacity:1;stroke:none;stroke-width:0"
               d="M 3.875,-2.765625 1.890625,-4.75 C 1.765625,-4.875 1.75,-4.890625 1.671875,-4.890625 1.5625,-4.890625 1.46875,-4.8125 1.46875,-4.6875 c 0,0.0625 0.015625,0.078125 0.125,0.1875 l 2,2 -2,2.015625 c -0.109375,0.109375 -0.125,0.125 -0.125,0.1875 0,0.125 0.09375,0.203125 0.203125,0.203125 0.078125,0 0.09375,-0.015625 0.21875,-0.140625 L 3.875,-2.21875 l 2.0625,2.0625 c 0.015625,0.015625 0.078125,0.0625 0.140625,0.0625 0.125,0 0.203125,-0.078125 0.203125,-0.203125 0,-0.015625 0,-0.046875 -0.03125,-0.109375 C 6.234375,-0.421875 4.65625,-1.984375 4.15625,-2.5 l 1.828125,-1.8125 c 0.046875,-0.0625 0.203125,-0.1875 0.25,-0.25 0,-0.015625 0.046875,-0.0625 0.046875,-0.125 0,-0.125 -0.078125,-0.203125 -0.203125,-0.203125 C 6,-4.890625 5.96875,-4.859375 5.859375,-4.75 Z m 0,0"
               id="id-8a89f29a-4302-4704-bdd5-27758daecb5b" />
          </g>
        </g>
        <g
           style="fill:#868686;fill-opacity:1"
           id="id-e67e6d80-d7f2-4faf-a650-0514cb6900fe">
          <g
             transform="translate(171.64,134.765)"
             id="g7431"
             style="fill:#868686;fill-opacity:1">
            <path
               style="fill:#868686;fill-opacity:1;stroke:none;stroke-width:0"
               d="m 1.578125,-0.78125 c -0.09375,0.390625 -0.109375,0.46875 -0.90625,0.46875 -0.15625,0 -0.265625,0 -0.265625,0.1875 C 0.40625,0 0.484375,0 0.671875,0 h 3.3125 c 2.0625,0 4.03125,-2.109375 4.03125,-4.28125 0,-1.40625 -0.84375,-2.53125 -2.34375,-2.53125 h -3.34375 c -0.1875,0 -0.296875,0 -0.296875,0.1875 0,0.125 0.078125,0.125 0.28125,0.125 0.125,0 0.3125,0.015625 0.421875,0.015625 0.171875,0.03125 0.21875,0.046875 0.21875,0.171875 0,0.03125 0,0.0625 -0.03125,0.1875 z M 3.734375,-6.125 C 3.828125,-6.46875 3.84375,-6.5 4.28125,-6.5 h 1.0625 c 0.96875,0 1.796875,0.53125 1.796875,1.84375 0,0.484375 -0.1875,2.125 -1.046875,3.21875 -0.28125,0.375 -1.0625,1.125 -2.296875,1.125 h -1.125 c -0.140625,0 -0.15625,0 -0.21875,0 -0.09375,-0.015625 -0.125,-0.03125 -0.125,-0.109375 0,-0.03125 0,-0.046875 0.046875,-0.21875 z m 0,0"
               id="id-38bfda4d-dffa-4a2d-81ac-a901f7ca60f6" />
          </g>
        </g>
        <g
           style="fill:#868686;fill-opacity:1"
           id="id-2631d4f6-86d3-469f-a3db-f47e9a8550aa">
          <g
             transform="translate(180.165,131.149)"
             id="g3902"
             style="fill:#868686;fill-opacity:1">
            <path
               style="fill:#868686;fill-opacity:1;stroke:none;stroke-width:0"
               d="M 3.515625,-1.265625 H 3.28125 c -0.015625,0.15625 -0.09375,0.5625 -0.1875,0.625 C 3.046875,-0.59375 2.515625,-0.59375 2.40625,-0.59375 H 1.125 c 0.734375,-0.640625 0.984375,-0.84375 1.390625,-1.171875 0.515625,-0.40625 1,-0.84375 1,-1.5 0,-0.84375 -0.734375,-1.359375 -1.625,-1.359375 -0.859375,0 -1.453125,0.609375 -1.453125,1.25 0,0.34375 0.296875,0.390625 0.375,0.390625 0.15625,0 0.359375,-0.125 0.359375,-0.375 0,-0.125 -0.046875,-0.375 -0.40625,-0.375 C 0.984375,-4.21875 1.453125,-4.375 1.78125,-4.375 c 0.703125,0 1.0625,0.546875 1.0625,1.109375 0,0.609375 -0.4375,1.078125 -0.65625,1.328125 L 0.515625,-0.265625 C 0.4375,-0.203125 0.4375,-0.1875 0.4375,0 h 2.875 z m 0,0"
               id="id-cdef9d98-34a2-4655-9f1b-d08c86041ff2" />
          </g>
        </g>
      </g>
    </g>
    <path
       style="fill:none;stroke:#000000;stroke-width:0.264583px;stroke-linecap:butt;stroke-linejoin:miter;stroke-opacity:1;marker-end:url(#ArrowWide)"
       d="M 97.961492,34.11472 C 88.536006,11.184067 66.220466,4.3370443 49.041252,26.389662"
       id="path115"
       sodipodi:nodetypes="cc" />
  </g>
  <g
     inkscape:groupmode="layer"
     id="layer2"
     inkscape:label="Layer 2">
    <path
       style="fill:none;stroke:#000000;stroke-width:0.292968;stroke-dasharray:none;stroke-opacity:1"
       id="path7"
       sodipodi:type="arc"
       sodipodi:cx="46.843277"
       sodipodi:cy="30.623762"
       sodipodi:rx="8.7321615"
       sodipodi:ry="10.376945"
       sodipodi:start="0"
       sodipodi:end="6.274476"
       sodipodi:arc-type="arc"
       d="M 55.575438,30.623762 A 8.7321615,10.376945 0 0 1 46.86229,41.000682 8.7321615,10.376945 0 0 1 38.111198,30.66895 8.7321615,10.376945 0 0 1 46.786239,20.247039 8.7321615,10.376945 0 0 1 55.575107,30.533387"
       sodipodi:open="true"
       transform="rotate(22.407689)" />
    <path
       style="fill:none;stroke:#000000;stroke-width:0.305061;stroke-dasharray:none;stroke-opacity:1"
       id="path8"
       sodipodi:type="arc"
       sodipodi:cx="46.976467"
       sodipodi:cy="30.474966"
       sodipodi:rx="19.900597"
       sodipodi:ry="20.971968"
       sodipodi:start="0"
       sodipodi:end="6.274476"
       sodipodi:open="true"
       sodipodi:arc-type="arc"
       d="M 66.877064,30.474966 A 19.900597,20.971968 0 0 1 47.019797,51.446884 19.900597,20.971968 0 0 1 27.076059,30.566291 19.900597,20.971968 0 0 1 46.846478,9.5034458 19.900597,20.971968 0 0 1 66.876309,30.292317"
       transform="rotate(22.407689)" />
    <path
       style="fill:#00b5fe;fill-opacity:1;stroke:#000000;stroke-width:0;stroke-dasharray:none;stroke-dashoffset:0;stroke-opacity:0.977481"
       d="m 29.052675,66.530171 c -2.910183,-0.361039 -6.176228,-1.57305 -8.492167,-3.151394 -5.829697,-3.973024 -9.246872,-11.536879 -8.421094,-18.639955 1.097844,-9.443349 7.843418,-17.0557 16.687478,-18.831748 2.375602,-0.477066 6.555185,-0.324781 8.784547,0.320069 10.631952,3.075322 16.482094,14.68706 12.941206,25.686538 -2.06599,6.417834 -7.272551,11.711178 -13.528276,13.753768 -2.461385,0.80368 -5.658564,1.14969 -7.971694,0.862722 z M 33.26357,56.077654 c 4.426042,-1.49103 7.509345,-5.965042 7.546031,-10.949639 0.02945,-4.002996 -1.609529,-7.022808 -4.613613,-8.500511 -1.308895,-0.643839 -1.530736,-0.686237 -3.590633,-0.686237 -2.026552,0 -2.301648,0.05028 -3.574036,0.653165 -2.082931,0.986946 -4.162803,3.052293 -5.206688,5.170326 -1.750163,3.551049 -1.892329,6.940817 -0.422801,10.081124 1.800003,3.84652 5.848451,5.583746 9.86174,4.231772 z"
       id="path108" />
    <g
       transform="matrix(0.62637973,0,0,0.62637973,43.002348,46.819818)"
       ns8:version="1.10.2"
       ns8:texconverter="pdflatex"
       ns8:pdfconverter="inkscape"
       ns8:text="$M$"
       ns8:preamble="/home/josua/.config/inkscape/extensions/textext/default_packages.tex"
       ns8:scale="1.0"
       ns8:alignment="middle center"
       ns8:stroke-to-path="0"
       ns8:inkscapeversion="1.3.2"
       id="g5193"
       ns8:jacobian_sqrt="0.352778"
       inkscape:label="M">
      <defs
         id="id-d487b1ae-57ab-49a2-956d-22a663fc169d">
        <g
           id="id-563a8e89-2a7a-4a85-aacb-024f32d301cd">
          <symbol
             overflow="visible"
             id="id-1622dab6-2c7f-4ac5-8e35-c3d17a83804c">
            <path
               style="stroke:none;stroke-width:0"
               d=""
               id="id-561baa18-cb22-4dd4-ae34-2e764fd0bac4" />
          </symbol>
          <symbol
             overflow="visible"
             id="id-d63b0982-f143-4bfc-83c2-041a9749aa17">
            <path
               style="stroke:none;stroke-width:0"
               d="M 9.234375,-6.046875 C 9.328125,-6.40625 9.34375,-6.5 10.09375,-6.5 c 0.21875,0 0.3125,0 0.3125,-0.203125 0,-0.109375 -0.09375,-0.109375 -0.265625,-0.109375 h -1.3125 c -0.265625,0 -0.28125,0 -0.390625,0.1875 L 4.796875,-0.9375 4.015625,-6.578125 C 3.984375,-6.8125 3.96875,-6.8125 3.703125,-6.8125 H 2.34375 c -0.1875,0 -0.296875,0 -0.296875,0.1875 0,0.125 0.09375,0.125 0.28125,0.125 0.140625,0 0.3125,0.015625 0.4375,0.015625 0.15625,0.03125 0.21875,0.046875 0.21875,0.171875 0,0.03125 -0.015625,0.0625 -0.046875,0.1875 l -1.265625,5.0625 c -0.09375,0.40625 -0.265625,0.71875 -1.078125,0.75 -0.046875,0 -0.171875,0.015625 -0.171875,0.1875 0,0.09375 0.0625,0.125 0.140625,0.125 0.3125,0 0.65625,-0.03125 1,-0.03125 C 1.890625,-0.03125 2.25,0 2.578125,0 c 0.046875,0 0.1875,0 0.1875,-0.203125 0,-0.109375 -0.109375,-0.109375 -0.1875,-0.109375 -0.5625,0 -0.671875,-0.203125 -0.671875,-0.4375 0,-0.0625 0,-0.125 0.03125,-0.234375 L 3.296875,-6.40625 H 3.3125 l 0.859375,6.171875 C 4.1875,-0.109375 4.203125,0 4.3125,0 4.421875,0 4.484375,-0.109375 4.53125,-0.171875 l 4.03125,-6.3125 h 0.015625 l -1.4375,5.703125 c -0.09375,0.390625 -0.109375,0.46875 -0.90625,0.46875 -0.15625,0 -0.265625,0 -0.265625,0.1875 C 5.96875,0 6.078125,0 6.109375,0 6.390625,0 7.0625,-0.03125 7.34375,-0.03125 7.75,-0.03125 8.1875,0 8.59375,0 8.65625,0 8.78125,0 8.78125,-0.203125 8.78125,-0.3125 8.6875,-0.3125 8.5,-0.3125 c -0.359375,0 -0.640625,0 -0.640625,-0.171875 0,-0.046875 0,-0.0625 0.046875,-0.25 z m 0,0"
               id="id-6bdec8d4-e727-465e-9df4-b415a0b71af6" />
          </symbol>
        </g>
      </defs>
      <g
         id="id-f7503bc2-b429-402d-be12-551f4b42b4f9"
         transform="translate(-149.134,-127.953)">
        <g
           style="fill:#000000;fill-opacity:1"
           id="id-208882a6-15b6-477c-83a5-c0e2ef9c9ba8">
          <g
             transform="translate(148.712,134.765)"
             id="g7844">
            <path
               style="stroke:none;stroke-width:0"
               d="M 9.234375,-6.046875 C 9.328125,-6.40625 9.34375,-6.5 10.09375,-6.5 c 0.21875,0 0.3125,0 0.3125,-0.203125 0,-0.109375 -0.09375,-0.109375 -0.265625,-0.109375 h -1.3125 c -0.265625,0 -0.28125,0 -0.390625,0.1875 L 4.796875,-0.9375 4.015625,-6.578125 C 3.984375,-6.8125 3.96875,-6.8125 3.703125,-6.8125 H 2.34375 c -0.1875,0 -0.296875,0 -0.296875,0.1875 0,0.125 0.09375,0.125 0.28125,0.125 0.140625,0 0.3125,0.015625 0.4375,0.015625 0.15625,0.03125 0.21875,0.046875 0.21875,0.171875 0,0.03125 -0.015625,0.0625 -0.046875,0.1875 l -1.265625,5.0625 c -0.09375,0.40625 -0.265625,0.71875 -1.078125,0.75 -0.046875,0 -0.171875,0.015625 -0.171875,0.1875 0,0.09375 0.0625,0.125 0.140625,0.125 0.3125,0 0.65625,-0.03125 1,-0.03125 C 1.890625,-0.03125 2.25,0 2.578125,0 c 0.046875,0 0.1875,0 0.1875,-0.203125 0,-0.109375 -0.109375,-0.109375 -0.1875,-0.109375 -0.5625,0 -0.671875,-0.203125 -0.671875,-0.4375 0,-0.0625 0,-0.125 0.03125,-0.234375 L 3.296875,-6.40625 H 3.3125 l 0.859375,6.171875 C 4.1875,-0.109375 4.203125,0 4.3125,0 4.421875,0 4.484375,-0.109375 4.53125,-0.171875 l 4.03125,-6.3125 h 0.015625 l -1.4375,5.703125 c -0.09375,0.390625 -0.109375,0.46875 -0.90625,0.46875 -0.15625,0 -0.265625,0 -0.265625,0.1875 C 5.96875,0 6.078125,0 6.109375,0 6.390625,0 7.0625,-0.03125 7.34375,-0.03125 7.75,-0.03125 8.1875,0 8.59375,0 8.65625,0 8.78125,0 8.78125,-0.203125 8.78125,-0.3125 8.6875,-0.3125 8.5,-0.3125 c -0.359375,0 -0.640625,0 -0.640625,-0.171875 0,-0.046875 0,-0.0625 0.046875,-0.25 z m 0,0"
               id="id-b754b712-eaa1-443b-b1a2-666c0ee1df4a" />
          </g>
        </g>
      </g>
    </g>
    <path
       style="fill:none;stroke:#000000;stroke-width:0.469784px;stroke-linecap:butt;stroke-linejoin:miter;stroke-opacity:1"
       d="m 38.648818,50.628247 10.39584,6.16898"
       id="path114" />
  </g>
</svg>
