<?xml version="1.0" encoding="UTF-8" standalone="no"?>
<!-- Created with Inkscape (http://www.inkscape.org/) -->

<svg
   xmlns:dc="http://purl.org/dc/elements/1.1/"
   xmlns:cc="http://creativecommons.org/ns#"
   xmlns:rdf="http://www.w3.org/1999/02/22-rdf-syntax-ns#"
   xmlns:svg="http://www.w3.org/2000/svg"
   xmlns="http://www.w3.org/2000/svg"
   xmlns:sodipodi="http://sodipodi.sourceforge.net/DTD/sodipodi-0.dtd"
   xmlns:inkscape="http://www.inkscape.org/namespaces/inkscape"
   width="210mm"
   height="297mm"
   viewBox="0 0 210 297"
   version="1.1"
   id="svg8"
   inkscape:version="0.92.5 (2060ec1f9f, 2020-04-08)"
   sodipodi:docname="blowdown_handle.svg">
  <defs
     id="defs2" />
  <sodipodi:namedview
     id="base"
     pagecolor="#ffffff"
     bordercolor="#666666"
     borderopacity="1.0"
     inkscape:pageopacity="0.0"
     inkscape:pageshadow="2"
     inkscape:zoom="16"
     inkscape:cx="139.66672"
     inkscape:cy="1031.8167"
     inkscape:document-units="mm"
     inkscape:current-layer="layer3"
     showgrid="false"
     inkscape:window-width="1848"
     inkscape:window-height="1016"
     inkscape:window-x="72"
     inkscape:window-y="27"
     inkscape:window-maximized="1" />
  <metadata
     id="metadata5">
    <rdf:RDF>
      <cc:Work
         rdf:about="">
        <dc:format>image/svg+xml</dc:format>
        <dc:type
           rdf:resource="http://purl.org/dc/dcmitype/StillImage" />
        <dc:title></dc:title>
      </cc:Work>
    </rdf:RDF>
  </metadata>
  <g
     inkscape:label="Layer 1"
     inkscape:groupmode="layer"
     id="layer1">
    <path
       style="fill:none;stroke:#000000;stroke-width:0.26458332px;stroke-linecap:butt;stroke-linejoin:miter;stroke-opacity:1"
       d="M 19.836959,30.58055 19.803549,15.71368"
       id="path4521"
       inkscape:connector-curvature="0" />
    <path
       style="fill:none;stroke:#000000;stroke-width:0.26458332px;stroke-linecap:butt;stroke-linejoin:miter;stroke-opacity:1"
       d="M 21.691141,13.892906 H 32.214879"
       id="path4523"
       inkscape:connector-curvature="0" />
    <path
       style="fill:none;stroke:#000000;stroke-width:0.26458332px;stroke-linecap:butt;stroke-linejoin:miter;stroke-opacity:1"
       d="m 34.10247,15.71368 0.02362,15.000865"
       id="path4525"
       inkscape:connector-curvature="0"
       sodipodi:nodetypes="cc" />
    <path
       style="fill:none;fill-opacity:1;stroke:#000000;stroke-width:0.25;stroke-linejoin:round;stroke-miterlimit:4;stroke-dasharray:none;stroke-opacity:1"
       d="m 32.214879,13.892906 c 1.042488,0 1.887591,0.815188 1.887591,1.820774"
       id="path4549"
       inkscape:connector-curvature="0" />
    <path
       inkscape:connector-curvature="0"
       style="fill:none;fill-opacity:1;stroke:#000000;stroke-width:0.25;stroke-linejoin:round;stroke-miterlimit:4;stroke-dasharray:none;stroke-opacity:1"
       d="m 21.691141,13.892906 c -1.042488,0 -1.887591,0.815188 -1.887591,1.820774"
       id="path4549-6" />
    <path
       style="fill:none;stroke:#000000;stroke-width:0.25;stroke-linecap:butt;stroke-linejoin:miter;stroke-miterlimit:4;stroke-dasharray:none;stroke-opacity:1"
       d="m 17.790739,30.591335 -0.04302,-17.33743"
       id="path4521-7"
       inkscape:connector-curvature="0" />
    <path
       style="fill:none;stroke:#000000;stroke-width:0.25;stroke-linecap:butt;stroke-linejoin:miter;stroke-miterlimit:4;stroke-dasharray:none;stroke-opacity:1"
       d="M 20.178088,11.130556 H 33.727926"
       id="path4523-5"
       inkscape:connector-curvature="0" />
    <path
       style="fill:none;stroke:#000000;stroke-width:0.25;stroke-linecap:butt;stroke-linejoin:miter;stroke-miterlimit:4;stroke-dasharray:none;stroke-opacity:1"
       d="m 36.158297,13.304016 c -2.56e-4,-2.4825 0.01575,11.614305 0.02362,17.421458"
       id="path4525-3"
       inkscape:connector-curvature="0"
       sodipodi:nodetypes="cc" />
    <path
       style="fill:none;fill-opacity:1;stroke:#000000;stroke-width:0.25;stroke-linejoin:round;stroke-miterlimit:4;stroke-dasharray:none;stroke-opacity:1"
       d="m 33.727926,11.130556 c 1.342256,0 2.430368,0.950655 2.430368,2.123349"
       id="path4549-5"
       inkscape:connector-curvature="0" />
    <path
       inkscape:connector-curvature="0"
       style="fill:none;fill-opacity:1;stroke:#000000;stroke-width:0.25;stroke-linejoin:round;stroke-miterlimit:4;stroke-dasharray:none;stroke-opacity:1"
       d="m 20.178088,11.130556 c -1.342256,0 -2.430369,0.950655 -2.430369,2.123349"
       id="path4549-6-6" />
    <path
       style="fill:none;stroke:#000000;stroke-width:0.26458332px;stroke-linecap:butt;stroke-linejoin:miter;stroke-opacity:1"
       d="m 36.281838,18.605378 c 0,0 3.583402,0.378311 4.710626,1.264158 1.127224,0.885847 1.549356,1.809386 1.469983,3.012154 -0.07937,1.202768 -0.612482,1.652642 -1.703845,2.410798 -1.091363,0.758156 -4.510172,1.297568 -4.510172,1.297568"
       id="path4593"
       inkscape:connector-curvature="0"
       sodipodi:nodetypes="czzzc" />
    <path
       style="fill:none;stroke:#000000;stroke-width:0.25;stroke-linecap:butt;stroke-linejoin:miter;stroke-miterlimit:4;stroke-dasharray:none;stroke-opacity:1"
       d="m 36.301823,19.882339 c 0,0 2.689205,0.23834 3.535144,0.796432 0.845938,0.558091 1.162732,1.13993 1.103166,1.897685 -0.05956,0.757756 -0.459645,1.041181 -1.278671,1.518826 -0.819026,0.477646 -3.38471,0.81748 -3.38471,0.81748"
       id="path4593-2"
       inkscape:connector-curvature="0"
       sodipodi:nodetypes="czzzc" />
    <path
       style="fill:none;stroke:#000000;stroke-width:0.26458332px;stroke-linecap:butt;stroke-linejoin:miter;stroke-opacity:1"
       d="m 17.790739,30.591335 2.04622,-0.01079"
       id="path4610"
       inkscape:connector-curvature="0"
       sodipodi:nodetypes="cc" />
    <path
       style="fill:none;stroke:#000000;stroke-width:0.26458332px;stroke-linecap:butt;stroke-linejoin:miter;stroke-opacity:1"
       d="m 34.126095,30.714544 c 0.670009,0.0036 1.325995,0.0073 2.055826,0.01093"
       id="path4612"
       inkscape:connector-curvature="0"
       sodipodi:nodetypes="cc" />
    <path
       style="fill:none;stroke:#000000;stroke-width:0.26458332px;stroke-linecap:butt;stroke-linejoin:miter;stroke-opacity:1"
       d="M 17.747719,13.253905 3.57473,13.226578 c 0,0 -0.1555442,4.204055 0.3674955,6.347652 0.5230397,2.143597 1.5978938,4.652393 2.8731474,6.147199 1.2752536,1.494806 2.3156503,1.936455 4.1426771,2.806329 1.827027,0.869874 6.832689,2.063576 6.832689,2.063576"
       id="path4614"
       inkscape:connector-curvature="0"
       sodipodi:nodetypes="cczzzc" />
  </g>
  <g
     inkscape:groupmode="layer"
     id="layer3"
     inkscape:label="colors"
     style="display:inline">
    <path
       style="fill:#aaaaff;fill-opacity:1;stroke:#000000;stroke-width:0.02982734;stroke-linejoin:round;stroke-miterlimit:4;stroke-dasharray:0.08948202, 0.02982734;stroke-dashoffset:0;stroke-opacity:1"
       d="m 137.23872,99.554031 c -0.0447,-0.372517 -0.0566,-4.90871 -0.0128,-4.90871 0.10438,0 1.99468,-0.293034 3.09705,-0.480104 3.6171,-0.613813 6.72573,-1.36753 8.56095,-2.075684 1.39966,-0.540084 3.69204,-1.983231 4.65262,-2.929013 1.25428,-1.234959 1.79013,-2.760936 1.69875,-4.837696 -0.0455,-1.03471 -0.24663,-1.849441 -0.66974,-2.713302 -0.40471,-0.826292 -0.91452,-1.500092 -1.72738,-2.283013 -1.2772,-1.230167 -2.61327,-2.054833 -4.21301,-2.600394 -2.2295,-0.760334 -6.47871,-1.5717 -10.29093,-1.965001 -0.3646,-0.03762 -0.76945,-0.08463 -0.89966,-0.104466 l -0.23676,-0.03607 V 72.73367 70.846762 l 0.17362,0.02946 c 0.0955,0.0162 0.74183,0.10312 1.43631,0.193145 4.99791,0.647876 10.02125,1.783863 12.87945,2.912576 2.01856,0.797139 3.07604,1.49958 4.7178,3.133841 1.95585,1.946913 3.01673,3.908546 3.43675,6.354726 0.151,0.8794 0.17882,2.544103 0.0597,3.569592 -0.28233,2.42977 -1.099,4.02386 -2.87934,5.620285 -0.64507,0.578428 -2.30416,1.839499 -3.21986,2.447412 -1.8547,1.231282 -5.04117,2.351536 -9.88056,3.473664 -2.1795,0.50537 -6.18091,1.304026 -6.53341,1.304026 -0.0852,0 -0.11859,-0.07406 -0.14951,-0.331456 z"
       id="path4837"
       inkscape:connector-curvature="0"
       transform="scale(0.26458333)" />
    <path
       style="fill:#aaffcc;fill-opacity:1;stroke:#000000;stroke-width:0.02982734;stroke-linejoin:round;stroke-miterlimit:4;stroke-dasharray:0.08948202, 0.02982734;stroke-dashoffset:0;stroke-opacity:1"
       d="m 66.360866,114.86551 c -9.851555,-2.428 -18.732236,-5.05019 -23.051863,-6.80648 -1.903408,-0.7739 -7.013145,-3.25566 -8.847037,-4.29694 -5.169141,-2.93503 -8.925945,-6.825971 -12.30757,-12.747005 -2.769365,-4.849003 -5.277945,-11.218857 -6.675898,-16.951623 -0.838517,-3.438614 -1.272441,-7.679288 -1.463237,-14.299972 -0.06747,-2.341158 -0.05147,-9.148578 0.02168,-9.22172 0.04887,-0.04887 52.451499,0.07904 52.500608,0.128147 0.04006,0.04006 0.219392,61.208043 0.185672,63.330143 l -0.01511,0.95103 z"
       id="path4839"
       inkscape:connector-curvature="0"
       transform="scale(0.26458333)" />
    <path
       style="fill:#ffb380;fill-opacity:1;stroke:none;stroke-width:0.00789182;stroke-linejoin:round;stroke-miterlimit:4;stroke-dasharray:0.02367545, 0.00789182000000000;stroke-dashoffset:0;stroke-opacity:1"
       d="m 17.941435,30.166439 c -0.03587,-13.240954 -0.04252,-17.015716 -0.03013,-17.120175 0.04903,-0.413339 0.257955,-0.816305 0.584193,-1.126763 0.329463,-0.313527 0.71305,-0.507761 1.21238,-0.613903 l 0.180398,-0.03835 5.909162,-0.0044 5.909162,-0.0044 v 1.244337 1.244337 l -5.107353,0.0054 c -4.73695,0.005 -5.117651,0.0075 -5.249341,0.03398 -0.675412,0.135739 -1.202176,0.534807 -1.479944,1.12118 -0.09646,0.203634 -0.153026,0.424017 -0.174001,0.67794 -0.01184,0.143373 -0.01149,2.492368 0.0011,7.522312 0.01009,4.022611 0.01589,7.316235 0.01289,7.319161 -0.003,0.0029 -0.401967,0.01085 -0.886602,0.0176 l -0.881154,0.01228 z"
       id="path4841"
       inkscape:connector-curvature="0" />
    <path
       style="fill:#ffb380;fill-opacity:1;stroke:#000000;stroke-width:0.02982734;stroke-linejoin:round;stroke-miterlimit:4;stroke-dasharray:0.08948202, 0.02982734;stroke-dashoffset:0;stroke-opacity:1"
       d="m 130.86858,115.5587 -1.37318,-0.0183 -0.008,-12.26265 c -0.004,-6.744462 -0.0288,-19.549959 -0.054,-28.456663 -0.0498,-17.592266 -0.0266,-16.525071 -0.38367,-17.614535 -0.74988,-2.287803 -2.58573,-4.091235 -4.90981,-4.823124 -0.83929,-0.264304 -1.52805,-0.356875 -2.96233,-0.398146 l -1.34161,-0.03861 V 47.24913 42.551587 l 4.40363,0.02235 c 4.2688,0.02167 4.42433,0.02667 5.07969,0.163479 0.90148,0.188182 1.52534,0.396453 2.31742,0.773649 1.76216,0.839163 3.04258,2.07117 3.82517,3.68054 0.41845,0.860526 0.58464,1.482126 0.66049,2.470361 0.0337,0.439154 0.0734,14.458022 0.0944,33.350818 l 0.0363,32.593206 -2.00558,-0.0145 c -1.10307,-0.008 -2.62351,-0.0227 -3.37875,-0.0328 z"
       id="path4843"
       inkscape:connector-curvature="0"
       transform="scale(0.26458333)" />
    <path
       style="fill:#ffb380;fill-opacity:1;stroke:none;stroke-width:0.02982734;stroke-linejoin:round;stroke-miterlimit:4;stroke-dasharray:0.08948202, 0.02982734000000000;stroke-dashoffset:0;stroke-opacity:1"
       d="m 129.98469,115.49383 -0.42616,-0.0199 -8.5e-4,-4.65329 c -4.7e-4,-2.55931 -0.0146,-7.83527 -0.0313,-11.724355 -0.0167,-3.889087 -0.045,-14.131087 -0.0629,-22.759999 -0.0179,-8.628913 -0.0485,-16.157706 -0.068,-16.730652 -0.0608,-1.779841 -0.14786,-2.186832 -0.72439,-3.386664 -1.10517,-2.299998 -3.48036,-3.933517 -6.08494,-4.184878 -0.57801,-0.05578 -1.97397,-0.129103 -2.48199,-0.130362 l -0.20519,-5.09e-4 v -4.645873 -4.645872 l 4.49834,0.0276 4.49833,0.0276 0.66291,0.161638 c 2.78916,0.680078 4.83628,2.240027 5.91437,4.50686 0.37947,0.797874 0.52262,1.400398 0.59032,2.484608 0.0318,0.509897 0.0767,15.271596 0.10118,33.321361 l 0.044,32.405907 -2.89879,-0.0167 c -1.59433,-0.009 -3.09055,-0.0256 -3.32494,-0.0366 z"
       id="path4845"
       inkscape:connector-curvature="0"
       transform="scale(0.26458333)" />
    <path
       style="fill:none;stroke:#ff0000;stroke-width:0.125;stroke-linecap:butt;stroke-linejoin:miter;stroke-miterlimit:4;stroke-dasharray:none;stroke-opacity:1"
       d="m 40.398567,22.26328 c -0.002,-0.473816 -0.321857,-0.947625 -0.694531,-1.240234 -0.404966,-0.317964 -1.020906,-0.375055 -1.521354,-0.496093 -0.503308,-0.12173 -0.930743,-0.130107 -1.30638,0.04961 -0.196204,0.09387 -0.281121,0.363802 -0.281121,0.363802 l 0.01654,2.926953 c 0,0 0.224518,0.298689 0.413412,0.347266 0.868791,0.223422 1.918129,-0.04854 2.629297,-0.595313 0.408744,-0.314255 0.74635,-0.84041 0.744137,-1.35599 z"
       id="path4904"
       inkscape:connector-curvature="0"
       sodipodi:nodetypes="ssssccsss" />
  </g>
  <g
     inkscape:groupmode="layer"
     id="layer2"
     inkscape:label="labels"
     style="display:inline">
    <path
       style="fill:none;stroke:#000000;stroke-width:0.125;stroke-linecap:butt;stroke-linejoin:miter;stroke-miterlimit:4;stroke-dasharray:0.375, 0.125;stroke-dashoffset:0;stroke-opacity:1"
       d="m 17.747719,13.253905 4.302017,4.683299"
       id="path4636"
       inkscape:connector-curvature="0" />
    <path
       style="fill:none;stroke:#000000;stroke-width:0.125;stroke-linecap:butt;stroke-linejoin:miter;stroke-miterlimit:4;stroke-dasharray:0.375, 0.125;stroke-dashoffset:0;stroke-opacity:1"
       d="m 19.836959,30.580549 2.179368,-0.04827"
       id="path4638"
       inkscape:connector-curvature="0" />
    <path
       style="fill:none;stroke:#000000;stroke-width:0.125;stroke-linecap:butt;stroke-linejoin:miter;stroke-miterlimit:4;stroke-dasharray:0.375, 0.125;stroke-dashoffset:0;stroke-opacity:1"
       d="m 36.158294,13.253905 -4.302017,4.683299"
       id="path4636-9"
       inkscape:connector-curvature="0" />
    <path
       style="fill:none;stroke:#000000;stroke-width:0.125;stroke-linecap:butt;stroke-linejoin:miter;stroke-miterlimit:4;stroke-dasharray:0.375, 0.125;stroke-dashoffset:0;stroke-opacity:1"
       d="m 34.126095,30.714544 -2.179368,-0.04827"
       id="path4638-1"
       inkscape:connector-curvature="0"
       sodipodi:nodetypes="cc" />
    <path
       style="fill:none;stroke:#000000;stroke-width:0.125;stroke-linecap:butt;stroke-linejoin:miter;stroke-miterlimit:4;stroke-dasharray:0.375, 0.125;stroke-dashoffset:0;stroke-opacity:1"
       d="m 21.284784,17.297618 0.02363,13.087425"
       id="path4658"
       inkscape:connector-curvature="0" />
    <path
       style="fill:none;stroke:#000000;stroke-width:0.125;stroke-linecap:butt;stroke-linejoin:miter;stroke-miterlimit:4;stroke-dasharray:0.375, 0.125;stroke-dashoffset:0;stroke-opacity:1"
       d="m 32.517761,17.43936 0.02363,13.087425"
       id="path4658-2"
       inkscape:connector-curvature="0" />
    <text
       xml:space="preserve"
       style="font-style:normal;font-weight:normal;font-size:1.76388884px;line-height:1.25;font-family:sans-serif;letter-spacing:0px;word-spacing:0px;fill:#000000;fill-opacity:1;stroke:none;stroke-width:0.26458332"
       x="27.176491"
       y="26.354872"
       id="text4677"><tspan
         sodipodi:role="line"
         id="tspan4675"
         x="27.176491"
         y="26.354872"
         style="font-size:1.51694441px;stroke-width:0.26458332">$V_+\times\SSS^1$</tspan></text>
    <text
       xml:space="preserve"
       style="font-style:normal;font-weight:normal;font-size:1.76388884px;line-height:1.25;font-family:sans-serif;letter-spacing:0px;word-spacing:0px;fill:#000000;fill-opacity:1;stroke:none;stroke-width:0.26458332"
       x="21.928699"
       y="21.507837"
       id="text4677-7"><tspan
         sodipodi:role="line"
         id="tspan4675-0"
         x="21.928699"
         y="21.507837"
         style="font-size:1.51694441px;stroke-width:0.26458332">$V_-\times\SSS^1$</tspan></text>
    <text
       xml:space="preserve"
       style="font-style:normal;font-weight:normal;font-size:1.76388884px;line-height:1.25;font-family:sans-serif;letter-spacing:0px;word-spacing:0px;fill:#000000;fill-opacity:1;stroke:none;stroke-width:0.26458332"
       x="5.6784739"
       y="20.293589"
       id="text4677-7-9"><tspan
         sodipodi:role="line"
         id="tspan4675-0-3"
         x="5.6784739"
         y="20.293589"
         style="font-size:1.51694441px;stroke-width:0.26458332">$V_-\times D^2$</tspan></text>
    <path
       style="fill:none;stroke:#000000;stroke-width:0.125;stroke-linecap:butt;stroke-linejoin:miter;stroke-miterlimit:4;stroke-dasharray:0.375, 0.125;stroke-dashoffset:0;stroke-opacity:1"
       d="M 49.056583,18.795349 41.553757,21.573474 42.78218,20.67578"
       id="path4715"
       inkscape:connector-curvature="0"
       sodipodi:nodetypes="ccc" />
    <path
       style="fill:none;stroke:#000000;stroke-width:0.125;stroke-linecap:butt;stroke-linejoin:miter;stroke-miterlimit:4;stroke-dasharray:0.375, 0.125;stroke-dashoffset:0;stroke-opacity:1"
       d="m 41.553757,21.573474 1.322916,0.09449"
       id="path4717"
       inkscape:connector-curvature="0"
       sodipodi:nodetypes="cc" />
    <text
       xml:space="preserve"
       style="font-style:normal;font-weight:normal;font-size:1.76388884px;line-height:1.25;font-family:sans-serif;letter-spacing:0px;word-spacing:0px;fill:#000000;fill-opacity:1;stroke:none;stroke-width:0.26458332"
       x="49.576298"
       y="18.313429"
       id="text4721"><tspan
         sodipodi:role="line"
         id="tspan4719"
         x="49.576298"
         y="18.313429"
         style="stroke-width:0.26458332">surgery \\ handles</tspan></text>
    <path
       style="fill:none;stroke:#ff0000;stroke-width:0.125;stroke-linecap:butt;stroke-linejoin:miter;stroke-miterlimit:4;stroke-dasharray:none;stroke-opacity:1"
       d="m 3.5907739,12.502045 c 0,0 8.3714991,0.03974 12.9220611,0 0.242571,-0.0021 0.520095,-0.01281 0.708705,-0.165364 0.230064,-0.186079 0.260885,-0.250028 0.425223,-0.496094 0.195046,-0.292046 0.445086,-0.790135 0.732329,-0.992188 0.285867,-0.201085 1.067906,-0.471397 1.417411,-0.47247 5.054047,-0.01551 9.746104,0.03401 14.221354,-10e-7 0.89208,-0.0068 1.661777,0.323009 1.984374,0.590589 0.338218,0.280537 0.53542,0.646599 0.732329,1.039434 0.132828,0.264994 0.105177,0.766921 0.118117,1.063058 0.03984,0.911674 -0.09987,2.788783 0.04725,4.29948 0.02225,0.228499 0.164137,0.462038 0.354351,0.590588 0.621044,0.419711 1.499945,0.337201 2.220611,0.54334 0.838045,0.239714 1.724449,0.476967 2.409598,1.015811 0.562029,0.442015 1.00504,1.06269 1.27567,1.724516 0.17155,0.419527 0.194815,0.893332 0.188989,1.346541 -0.0062,0.478948 -0.06507,0.970049 -0.236236,1.41741 -0.209992,0.54884 -0.499409,1.105107 -0.944941,1.488282 -0.665592,0.572435 -1.57332,0.795972 -2.409597,1.063059 -0.819421,0.261703 -1.456922,0.254615 -2.258408,0.566963 -0.171129,0.06669 -0.371534,0.130042 -0.472471,0.283482 -0.39025,0.593237 -0.245678,3.212798 -0.245678,3.212798"
       id="path4723"
       inkscape:connector-curvature="0"
       sodipodi:nodetypes="cssssssssssssssssssssc" />
    <path
       style="fill:none;stroke:#000000;stroke-width:0.125;stroke-linecap:butt;stroke-linejoin:miter;stroke-miterlimit:4;stroke-dasharray:0.375, 0.125;stroke-dashoffset:0;stroke-opacity:1"
       d="m 42.725482,11.779166 -5.282215,1.337091 1.252045,-0.8032"
       id="path4725"
       inkscape:connector-curvature="0"
       sodipodi:nodetypes="ccc" />
    <path
       style="fill:none;stroke:#000000;stroke-width:0.125;stroke-linecap:butt;stroke-linejoin:miter;stroke-miterlimit:4;stroke-dasharray:0.375, 0.125;stroke-dashoffset:0;stroke-opacity:1"
       d="m 37.443267,13.116257 1.27567,0.165364"
       id="path4727"
       inkscape:connector-curvature="0"
       sodipodi:nodetypes="cc" />
    <text
       xml:space="preserve"
       style="font-style:normal;font-weight:normal;font-size:1.76388884px;line-height:1.25;font-family:sans-serif;letter-spacing:0px;word-spacing:0px;fill:#ff0000;fill-opacity:1;stroke:none;stroke-width:0.26458332"
       x="43.38694"
       y="12.284708"
       id="text4731"><tspan
         sodipodi:role="line"
         id="tspan4729"
         x="43.38694"
         y="12.284708"
         style="fill:#ff0000;fill-opacity:1;stroke-width:0.26458332">$M_+'$</tspan></text>
    <path
       style="fill:none;stroke:#000000;stroke-width:0.125;stroke-linecap:butt;stroke-linejoin:miter;stroke-miterlimit:4;stroke-dasharray:0.375, 0.125;stroke-dashoffset:0;stroke-opacity:1"
       d="m 20.178088,11.130556 2.6186,4.985886"
       id="path4733"
       inkscape:connector-curvature="0"
       sodipodi:nodetypes="cc" />
    <path
       style="fill:none;stroke:#000000;stroke-width:0.125;stroke-linecap:butt;stroke-linejoin:miter;stroke-miterlimit:4;stroke-dasharray:0.375, 0.125;stroke-dashoffset:0;stroke-opacity:1"
       d="m 33.727927,11.130556 -2.615764,5.104005"
       id="path4735"
       inkscape:connector-curvature="0"
       sodipodi:nodetypes="cc" />
    <path
       style="fill:none;stroke:#000000;stroke-width:0.125;stroke-linecap:butt;stroke-linejoin:miter;stroke-miterlimit:4;stroke-dasharray:0.375, 0.125;stroke-dashoffset:0;stroke-opacity:1"
       d="m 31.537388,15.147879 -9.165923,-0.02362"
       id="path4737"
       inkscape:connector-curvature="0"
       sodipodi:nodetypes="cc" />
    <text
       xml:space="preserve"
       style="font-style:normal;font-weight:normal;font-size:1.76388884px;line-height:1.25;font-family:sans-serif;letter-spacing:0px;word-spacing:0px;fill:#000000;fill-opacity:1;stroke:none;stroke-width:0.26458332"
       x="23.562092"
       y="16.966888"
       id="text4741"><tspan
         sodipodi:role="line"
         id="tspan4739"
         x="23.562092"
         y="16.966888"
         style="stroke-width:0.26458332">$N\times D^*\SSS^1$</tspan></text>
    <path
       style="fill:#c8b7be;fill-opacity:1;stroke:#ff0000;stroke-width:0.04218223;stroke-linejoin:round;stroke-miterlimit:4;stroke-dasharray:0.12654668, 0.04218223;stroke-dashoffset:0;stroke-opacity:1"
       d=""
       id="path4784"
       inkscape:connector-curvature="0"
       transform="scale(0.26458333)" />
    <path
       style="fill:#c8b7be;fill-opacity:1;stroke:none;stroke-width:0.04218223;stroke-linejoin:round;stroke-miterlimit:4;stroke-dasharray:0.12654668, 0.04218223;stroke-dashoffset:0;stroke-opacity:1"
       d="m 134.52195,78.277301 c 0,-0.509533 0.0179,-0.569006 0.15625,-0.519933 0.26669,0.09458 0.46881,0.3155 0.46738,0.510858 -0.002,0.260953 -0.0972,0.384259 -0.37991,0.491759 l -0.24372,0.09266 z"
       id="path4786"
       inkscape:connector-curvature="0"
       transform="scale(0.26458333)" />
    <path
       style="fill:#c8b7be;fill-opacity:1;stroke:none;stroke-width:0.04218223;stroke-linejoin:round;stroke-miterlimit:4;stroke-dasharray:0.12654668, 0.04218223;stroke-dashoffset:0;stroke-opacity:1"
       d="m 133.82753,76.932361 c -0.30397,-0.212911 -0.26825,-0.623897 0.0694,-0.798509 l 0.26785,-0.138514 v 0.538007 c 0,0.295904 -0.0312,0.538007 -0.0694,0.538007 -0.0382,0 -0.15872,-0.06255 -0.26786,-0.138991 z"
       id="path4788"
       inkscape:connector-curvature="0"
       transform="scale(0.26458333)" />
  </g>
</svg>
